<svg width="13" height="18" viewBox="0 0 12.35 17.43" fill="none" xmlns="http://www.w3.org/2000/svg">
	<path d="M6.27321 0.000167891C9.67643 0.0242008 12.4042 2.64972 12.3529 5.85256C12.3861 7.46025 11.7041 9.00627 10.4912 10.0737C9.52861 10.887 8.89943 12.0263 8.72508 13.2702L8.59762 14.2166L8.56359 16.3423L8.51672 16.3419L8.56358 16.3432C8.5447 16.8244 8.18122 17.225 7.70362 17.2903C7.13775 17.3775 6.56606 17.4236 5.99425 17.4266C5.42282 17.4155 4.85342 17.3614 4.29061 17.2662C3.81501 17.1943 3.46365 16.7887 3.46019 16.3072L3.49422 14.1815L3.39807 13.2326C3.26358 11.9866 2.67002 10.8386 1.73365 10.0119C0.555311 8.92759 -0.0771172 7.37222 0.0075243 5.76543C0.0587935 2.56262 2.87003 -0.0237851 6.27321 0.000167891ZM4.55079 16.2046C5.03803 16.2836 5.52971 16.3274 5.99802 16.3368C6.4869 16.3342 6.97533 16.2981 7.47553 16.2252L7.50843 14.1698L4.5837 14.1492L4.55079 16.2046ZM6.02233 15.6114L4.57022 15.6012L4.58185 14.8747L6.03396 14.885L6.02233 15.6114ZM6.25578 1.0889C3.43981 1.06902 1.13776 3.1871 1.09636 5.77311C1.02739 7.09746 1.53325 8.34093 2.45874 9.19283C3.58305 10.1855 4.29907 11.559 4.47419 13.0586L7.65282 13.081C7.87397 11.5881 8.63501 10.2225 9.77571 9.25912C10.7451 8.4059 11.2899 7.16987 11.2634 5.88491C11.3047 3.25898 9.07163 1.1089 6.25578 1.0889ZM7.60328 7.63444C8.00417 7.63732 8.32443 7.96424 8.31821 8.36506C8.31179 8.76604 7.98105 9.08918 7.58003 9.0864C7.51962 9.08598 7.46151 9.07603 7.40561 9.06173L6.47808 9.89795L6.4389 12.3459L5.71235 12.3407L5.75154 9.89282L4.85002 9.04272C4.79363 9.05625 4.73531 9.06632 4.67483 9.0659C4.274 9.06295 3.95467 8.73606 3.96088 8.33528C3.9673 7.93434 4.29712 7.61123 4.69808 7.61393C5.09913 7.61677 5.41941 7.94452 5.41299 8.34553C5.41205 8.40249 5.40215 8.45731 5.38887 8.5104L6.1249 9.20406L6.88297 8.52094C6.87137 8.46757 6.86421 8.41189 6.86512 8.3548C6.87173 7.95396 7.20234 7.63161 7.60328 7.63444Z" fill="#A8ADB4"/>
</svg>