<svg width="24" height="24" viewBox="0 0 24 24" fill="none" xmlns="http://www.w3.org/2000/svg">
<path d="M11.303 5.00217C11.7714 4.47741 12.6299 4.52006 13.0355 5.12522L16.0999 9.70139L19.0599 8.97092L19.2025 8.94553C19.9116 8.86459 20.5282 9.4867 20.4085 10.217L19.1907 17.6291C19.1032 18.1604 18.6442 18.5499 18.1058 18.55H5.89875C5.36226 18.5499 4.9044 18.163 4.81476 17.634L3.53254 10.0725C3.40679 9.3291 4.04467 8.69843 4.76398 8.79807L4.90851 8.82736L8.06671 9.6926L11.2152 5.11447L11.303 5.00217ZM12.4915 10.2072C12.2375 10.0957 11.9412 10.1448 11.7366 10.3322L10.3704 11.5852C10.0855 11.8465 10.0662 12.2895 10.3275 12.5744C10.5888 12.8594 11.0318 12.8787 11.3167 12.6174L11.5101 12.4397V15.1565C11.5102 15.543 11.8237 15.8567 12.2103 15.8567C12.5966 15.8564 12.9103 15.5428 12.9105 15.1565V10.8479C12.9104 10.5704 12.7455 10.319 12.4915 10.2072Z" fill="#15C674"/>
</svg>
