<svg width="24" height="24" viewBox="0 0 24 24" fill="none" xmlns="http://www.w3.org/2000/svg">
<path d="M16.5654 13.041C16.9519 13.041 17.2654 13.3548 17.2656 13.7412V15.875H19.3994C19.7859 15.875 20.0994 16.1888 20.0996 16.5752C20.0996 16.9618 19.786 17.2754 19.3994 17.2754H17.2656V19.4092C17.2656 19.7958 16.952 20.1094 16.5654 20.1094C16.1789 20.1094 15.8653 19.7958 15.8652 19.4092V17.2754H13.7314C13.3449 17.2754 13.0313 16.9618 13.0312 16.5752C13.0314 16.1888 13.345 15.875 13.7314 15.875H15.8652V13.7412C15.8654 13.3548 16.1789 13.041 16.5654 13.041Z" fill="#15C674"/>
<path fill-rule="evenodd" clip-rule="evenodd" d="M11.9961 4.22168C13.9755 4.22172 15.8007 4.56458 17.1572 5.14551C17.8342 5.43543 18.4268 5.79837 18.8604 6.2373C19.1631 6.54387 19.4011 6.90632 19.5205 7.31445C19.5761 7.41481 19.6103 7.52856 19.6104 7.65137V11.9678C19.1808 11.6864 18.711 11.4614 18.21 11.3066V10.0527C17.8947 10.2641 17.54 10.4533 17.1572 10.6172C15.8007 11.1981 13.9754 11.54 11.9961 11.54C10.0165 11.54 8.1906 11.1982 6.83398 10.6172C6.44794 10.4519 6.09073 10.2605 5.77344 10.0469V11.8828H5.78613C5.78613 12.0545 5.86418 12.2769 6.12695 12.543C6.39269 12.812 6.81245 13.0865 7.38574 13.332C8.44462 13.7854 9.91941 14.0895 11.5889 14.1328C11.3718 14.5653 11.2089 15.0297 11.1104 15.5176C9.47547 15.4319 7.9856 15.1123 6.83398 14.6191C6.44793 14.4538 6.09073 14.2624 5.77344 14.0488V15.8818H5.78613C5.78613 16.0535 5.86426 16.276 6.12695 16.542C6.39267 16.811 6.81252 17.0856 7.38574 17.3311C8.36227 17.7492 9.69265 18.0409 11.2031 18.1182C11.3438 18.6245 11.554 19.1018 11.8232 19.5391C9.91044 19.5198 8.15099 19.1822 6.83398 18.6182C6.15699 18.3282 5.56441 17.9644 5.13086 17.5254C4.74521 17.1349 4.45974 16.6551 4.39844 16.1035C4.38317 16.046 4.37305 15.9861 4.37305 15.9238V7.65137C4.37306 7.51537 4.41234 7.3887 4.47949 7.28125C4.60203 6.88658 4.83626 6.53559 5.13086 6.2373C5.56437 5.79839 6.15707 5.43543 6.83398 5.14551C8.1906 4.56454 10.0165 4.22168 11.9961 4.22168ZM11.9961 5.62207C10.1597 5.62207 8.52996 5.94175 7.38574 6.43164C6.81248 6.67714 6.39269 6.95171 6.12695 7.2207C5.86423 7.4867 5.78616 7.70921 5.78613 7.88086C5.78613 8.05252 5.86418 8.27496 6.12695 8.54102C6.39269 8.81004 6.81241 9.08455 7.38574 9.33008C8.52996 9.81999 10.1597 10.1396 11.9961 10.1396C13.8326 10.1396 15.4623 9.82006 16.6064 9.33008C17.1796 9.08461 17.5985 8.80997 17.8643 8.54102C18.127 8.27496 18.2051 8.05252 18.2051 7.88086C18.205 7.70921 18.127 7.4867 17.8643 7.2207C17.5985 6.95177 17.1796 6.67708 16.6064 6.43164C15.4623 5.94166 13.8326 5.62211 11.9961 5.62207Z" fill="#15C674"/>
</svg>
