<svg width="24" height="24" viewBox="0 0 24 24" fill="none" xmlns="http://www.w3.org/2000/svg">
<path d="M12.4453 13.6006C12.9245 13.6011 13.3135 13.9904 13.3135 14.4697C13.3132 14.9488 12.9243 15.3374 12.4453 15.3379H7.56543C7.11565 15.3379 6.74549 14.9957 6.70117 14.5576L6.69629 14.4697L6.70117 14.3809C6.74549 13.9428 7.11565 13.6006 7.56543 13.6006H12.4453Z" fill="#15C674"/>
<path fill-rule="evenodd" clip-rule="evenodd" d="M17.3086 5.61426C18.8547 5.61447 20.1082 6.86797 20.1084 8.41406V16.292C20.1082 17.8381 18.8547 19.0916 17.3086 19.0918H6.69141C5.14532 19.0916 3.89181 17.8381 3.8916 16.292V8.41406C3.89181 6.86798 5.14532 5.61447 6.69141 5.61426H17.3086ZM5.29199 16.292C5.2922 17.0649 5.91852 17.6912 6.69141 17.6914H17.3086C18.0815 17.6912 18.7078 17.0649 18.708 16.292V10.6611H5.29199V16.292ZM6.69141 7.01465C5.91852 7.01486 5.2922 7.64117 5.29199 8.41406V9.26074H18.708V8.41406C18.7078 7.64117 18.0815 7.01486 17.3086 7.01465H6.69141Z" fill="#15C674"/>
</svg>
