<svg width="24" height="24" viewBox="0 0 24 24" fill="none" xmlns="http://www.w3.org/2000/svg">
<path d="M9.53393 4.27812C10.9043 3.84273 12.3666 3.7847 13.7673 4.10917C15.1682 4.43371 16.4565 5.12912 17.4958 6.12285C18.5351 7.11653 19.2875 8.37184 19.6746 9.75663C19.7786 10.1288 19.5612 10.5147 19.1892 10.6189C18.8169 10.723 18.43 10.5059 18.3259 10.1336C18.0065 8.99075 17.3858 7.95461 16.5281 7.13456C15.6704 6.31459 14.6078 5.74028 13.4519 5.47246C12.2959 5.20463 11.0887 5.25374 9.95776 5.61308C8.82692 5.97243 7.81354 6.62952 7.02417 7.51542C6.23483 8.40135 5.69848 9.4836 5.47143 10.6482C5.24444 11.8129 5.33533 13.017 5.73413 14.1346C6.13296 15.2521 6.82492 16.242 7.73803 16.9998C8.65116 17.7576 9.75164 18.2552 10.9236 18.4412C11.3053 18.5019 11.5652 18.8612 11.5046 19.243C11.4439 19.6246 11.0856 19.8846 10.7039 19.824C9.28372 19.5986 7.95 18.9952 6.8435 18.0769C5.73712 17.1587 4.89805 15.9595 4.41479 14.6053C3.9315 13.251 3.82226 11.7911 4.09741 10.3797C4.3726 8.96845 5.02272 7.65728 5.97925 6.58378C6.93584 5.51027 8.16356 4.71354 9.53393 4.27812ZM13.5476 19.0379V17.7156C13.5477 16.2244 14.7566 15.0153 16.2478 15.0154H18.8152L17.6023 13.8348C17.3253 13.5651 17.3189 13.1215 17.5886 12.8445C17.8583 12.5676 18.3019 12.5622 18.5789 12.8318L21.0261 15.2146C21.1613 15.3463 21.238 15.5269 21.238 15.7156C21.238 15.9045 21.1615 16.0858 21.0261 16.2176L18.5789 18.6004C18.3019 18.8701 17.8583 18.8637 17.5886 18.5867C17.3191 18.3097 17.3254 17.8671 17.6023 17.5975L18.8162 16.4158H16.2478C15.5298 16.4157 14.9471 16.9977 14.947 17.7156V19.0379C14.947 19.4243 14.6342 19.7378 14.2478 19.7381C13.8612 19.7381 13.5476 19.4245 13.5476 19.0379ZM14.0974 9.30937C14.3494 9.01635 14.7906 8.98328 15.0837 9.23515C15.3768 9.48706 15.4106 9.92829 15.1589 10.2215L11.6619 14.2908C11.4102 14.5837 10.9688 14.6172 10.6755 14.366L8.46753 12.4734C8.1744 12.2219 8.14027 11.7805 8.39136 11.4871C8.64295 11.1936 9.08513 11.1594 9.37866 11.4109L11.0554 12.8475L14.0974 9.30937Z" fill="#15C674"/>
</svg>
