<svg width="24" height="24" viewBox="0 0 24 24" fill="none" xmlns="http://www.w3.org/2000/svg">
<path d="M11.7367 10.333C11.9412 10.1454 12.2375 10.0964 12.4916 10.208C12.7457 10.3197 12.9105 10.571 12.9105 10.8486V15.1572C12.9102 15.5435 12.5966 15.8572 12.2103 15.8574C11.824 15.8572 11.5104 15.5434 11.5101 15.1572V12.4404L11.3168 12.6181C11.0318 12.8791 10.5887 12.8599 10.3275 12.5752C10.0663 12.2903 10.0858 11.8472 10.3705 11.5859L11.7367 10.333Z" fill="#15C674"/>
<path fill-rule="evenodd" clip-rule="evenodd" d="M11.2289 4.93551C11.7399 4.36302 12.6761 4.40998 13.1185 5.07027L16.1439 9.58785L19.0355 8.87496L19.1918 8.84664C19.9655 8.75828 20.6381 9.43737 20.5072 10.2343L19.2904 17.6455C19.1951 18.2253 18.6934 18.6513 18.1058 18.6513H5.89879C5.31365 18.6511 4.81399 18.2283 4.71617 17.6513L3.43394 10.0898C3.29654 9.27898 3.99225 8.59109 4.77672 8.69918L4.93492 8.7314L8.02476 9.57906L11.1332 5.05855L11.2289 4.93551ZM9.09801 10.4892C8.80863 10.91 8.28486 11.1017 7.79234 10.9668L4.86656 10.164L6.06773 17.2509H17.9359L19.0765 10.3056L16.3441 10.9814C15.8539 11.1024 15.3399 10.9038 15.0589 10.4843L12.1185 6.09371L9.09801 10.4892Z" fill="#15C674"/>
</svg>
