<svg width="24" height="24" viewBox="0 0 24 24" fill="none" xmlns="http://www.w3.org/2000/svg">
<path fill-rule="evenodd" clip-rule="evenodd" d="M7.33887 14.4688C8.16721 14.4688 8.83874 15.1405 8.83887 15.9688V17.8047C8.83887 18.6331 8.16729 19.3047 7.33887 19.3047H5.50293C4.67459 19.3046 4.00293 18.6331 4.00293 17.8047V15.9688C4.00306 15.1405 4.67467 14.4689 5.50293 14.4688H7.33887ZM5.50293 15.8692C5.44787 15.8693 5.40345 15.9137 5.40332 15.9688V17.8047C5.40332 17.8599 5.44779 17.9042 5.50293 17.9043H7.33887C7.39409 17.9043 7.43848 17.8599 7.43848 17.8047V15.9688C7.43835 15.9137 7.39402 15.8692 7.33887 15.8692H5.50293Z" fill="#15C674"/>
<path fill-rule="evenodd" clip-rule="evenodd" d="M13.3975 14.4688C14.2258 14.4688 14.8973 15.1405 14.8975 15.9688V17.8047C14.8975 18.6331 14.2259 19.3047 13.3975 19.3047H11.5615C10.7332 19.3046 10.0615 18.6331 10.0615 17.8047V15.9688C10.0616 15.1405 10.7333 14.4689 11.5615 14.4688H13.3975ZM11.5615 15.8692C11.5065 15.8693 11.462 15.9137 11.4619 15.9688V17.8047C11.4619 17.8599 11.5064 17.9042 11.5615 17.9043H13.3975C13.4527 17.9043 13.4971 17.8599 13.4971 17.8047V15.9688C13.4969 15.9137 13.4526 15.8692 13.3975 15.8692H11.5615Z" fill="#15C674"/>
<path fill-rule="evenodd" clip-rule="evenodd" d="M7.33887 8.41409C8.16721 8.41409 8.83874 9.08577 8.83887 9.91409V11.75C8.83887 12.5785 8.16729 13.25 7.33887 13.25H5.50293C4.67459 13.2499 4.00293 12.5784 4.00293 11.75V9.91409C4.00306 9.08583 4.67467 8.41419 5.50293 8.41409H7.33887ZM5.50293 9.81448C5.44787 9.81458 5.40345 9.85903 5.40332 9.91409V11.75C5.40332 11.8052 5.44779 11.8495 5.50293 11.8496H7.33887C7.39409 11.8496 7.43848 11.8053 7.43848 11.75V9.91409C7.43835 9.85897 7.39402 9.81448 7.33887 9.81448H5.50293Z" fill="#15C674"/>
<path fill-rule="evenodd" clip-rule="evenodd" d="M17.6846 4.28323C18.1906 4.28323 18.6423 4.43217 19.0176 4.71878C19.3834 4.99826 19.6391 5.37977 19.8184 5.79006C20.17 6.59527 20.2822 7.63959 20.2822 8.69338C20.2822 9.74813 20.168 10.7918 19.8154 11.5967C19.6358 12.0069 19.3799 12.3877 19.0146 12.667C18.64 12.9535 18.1897 13.1026 17.6846 13.1026C17.1794 13.1026 16.7291 12.9535 16.3545 12.667C15.9892 12.3877 15.7334 12.0069 15.5537 11.5967C15.2012 10.7918 15.0869 9.74813 15.0869 8.69338C15.0869 7.63959 15.1991 6.59527 15.5508 5.79006C15.73 5.37977 15.9858 4.99826 16.3516 4.71878C16.7269 4.43217 17.1785 4.28323 17.6846 4.28323ZM17.6846 5.68362C17.4665 5.68362 17.3184 5.74241 17.2021 5.83108C17.0766 5.92699 16.9479 6.08978 16.834 6.35061C16.5994 6.88794 16.4873 7.6989 16.4873 8.69338C16.4873 9.6869 16.6005 10.4977 16.8359 11.0352C16.9503 11.2963 17.0794 11.4586 17.2051 11.5547C17.3214 11.6437 17.4686 11.7022 17.6846 11.7022C17.9005 11.7022 18.0477 11.6437 18.1641 11.5547C18.2898 11.4586 18.4188 11.2963 18.5332 11.0352C18.7686 10.4977 18.8818 9.6869 18.8818 8.69338C18.8818 7.6989 18.7698 6.88794 18.5352 6.35061C18.4212 6.08978 18.2926 5.92699 18.167 5.83108C18.0507 5.74241 17.9027 5.68362 17.6846 5.68362Z" fill="#15C674"/>
<path d="M10.041 5.4219C10.5879 4.44415 11.9922 3.86693 13.334 4.56057C14.3546 5.08845 14.6321 6.06134 14.584 6.91995C14.5372 7.75315 14.193 8.58571 13.8301 9.14846C13.5045 9.65341 12.8473 10.5764 12.2832 11.3584C12.199 11.4752 12.1156 11.5886 12.0361 11.6983H14.1592C14.5455 11.6985 14.8583 12.0121 14.8584 12.3985C14.8584 12.7849 14.5456 13.0985 14.1592 13.0987H10.6602C10.3966 13.0984 10.1553 12.9499 10.0361 12.7149C9.91711 12.4794 9.94038 12.196 10.0967 11.9834L10.0977 11.9815C10.0977 11.9815 10.1 11.9788 10.1016 11.9766C10.1052 11.9716 10.111 11.9638 10.1182 11.9541C10.1325 11.9346 10.1535 11.9053 10.1807 11.8682C10.235 11.794 10.3141 11.6873 10.4102 11.5557C10.6025 11.2922 10.8651 10.9305 11.1475 10.5391C11.7168 9.74973 12.3513 8.85806 12.6533 8.38967C12.918 7.97927 13.1553 7.37824 13.1855 6.84182C13.2142 6.33087 13.0628 5.99631 12.6904 5.80374C12.0319 5.46357 11.4485 5.77532 11.2637 6.10549C11.075 6.44289 10.648 6.56371 10.3105 6.37503C9.97334 6.18624 9.85236 5.75922 10.041 5.4219Z" fill="#15C674"/>
</svg>
