<svg width="24" height="24" viewBox="0 0 24 24" fill="none" xmlns="http://www.w3.org/2000/svg">
<path d="M7.43848 15.9688C7.43837 15.9136 7.39403 15.8691 7.33887 15.8691H5.50293C5.44786 15.8692 5.40343 15.9137 5.40332 15.9688V17.8047C5.40332 17.8598 5.44779 17.9042 5.50293 17.9043H7.33887C7.39409 17.9043 7.43847 17.8599 7.43848 17.8047V15.9688ZM13.4971 15.9688C13.497 15.9136 13.4526 15.8691 13.3975 15.8691H11.5615C11.5065 15.8692 11.462 15.9137 11.4619 15.9688V17.8047C11.4619 17.8598 11.5064 17.9042 11.5615 17.9043H13.3975C13.4527 17.9043 13.4971 17.8599 13.4971 17.8047V15.9688ZM7.43848 9.91406C7.43837 9.85893 7.39403 9.81445 7.33887 9.81445H5.50293C5.44786 9.81456 5.40343 9.85899 5.40332 9.91406V11.75C5.40332 11.8052 5.44779 11.8495 5.50293 11.8496H7.33887C7.39409 11.8496 7.43847 11.8052 7.43848 11.75V9.91406ZM18.8818 8.69336C18.8818 7.69885 18.7698 6.88792 18.5352 6.35059C18.4212 6.08974 18.2926 5.92697 18.167 5.83105C18.0507 5.74238 17.9027 5.68359 17.6846 5.68359C17.4665 5.68359 17.3184 5.74238 17.2021 5.83105C17.0766 5.92697 16.9479 6.08974 16.834 6.35059C16.5994 6.88792 16.4873 7.69885 16.4873 8.69336C16.4873 9.6869 16.6005 10.4977 16.8359 11.0352C16.9503 11.2963 17.0794 11.4586 17.2051 11.5547C17.3214 11.6436 17.4686 11.7021 17.6846 11.7021C17.9005 11.7021 18.0477 11.6436 18.1641 11.5547C18.2898 11.4586 18.4188 11.2963 18.5332 11.0352C18.7686 10.4977 18.8818 9.6869 18.8818 8.69336ZM12.1035 12.1357V6.38184L10.8389 7.33105C10.5296 7.56298 10.0914 7.50055 9.85938 7.19141C9.62745 6.88218 9.68988 6.4439 9.99902 6.21191L12.3828 4.42383C12.5949 4.26474 12.8791 4.23885 13.1162 4.35742C13.3533 4.47602 13.5029 4.71831 13.5029 4.9834V12.1357C13.5029 12.5223 13.1893 12.8359 12.8027 12.8359C12.4163 12.8358 12.1035 12.5222 12.1035 12.1357ZM8.83887 17.8047C8.83887 18.6331 8.16729 19.3047 7.33887 19.3047H5.50293C4.67459 19.3046 4.00293 18.633 4.00293 17.8047V15.9688C4.00304 15.1405 4.67466 14.4689 5.50293 14.4688H7.33887C8.16723 14.4688 8.83876 15.1404 8.83887 15.9688V17.8047ZM14.8975 17.8047C14.8975 18.6331 14.2259 19.3047 13.3975 19.3047H11.5615C10.7332 19.3046 10.0615 18.633 10.0615 17.8047V15.9688C10.0616 15.1405 10.7333 14.4689 11.5615 14.4688H13.3975C14.2258 14.4688 14.8974 15.1404 14.8975 15.9688V17.8047ZM8.83887 11.75C8.83887 12.5784 8.16729 13.25 7.33887 13.25H5.50293C4.67459 13.2499 4.00293 12.5784 4.00293 11.75V9.91406C4.00304 9.08579 4.67466 8.41417 5.50293 8.41406H7.33887C8.16723 8.41406 8.83876 9.08573 8.83887 9.91406V11.75ZM20.2822 8.69336C20.2822 9.74811 20.168 10.7917 19.8154 11.5967C19.6357 12.0069 19.3799 12.3877 19.0146 12.667C18.64 12.9534 18.1897 13.1025 17.6846 13.1025C17.1794 13.1025 16.7291 12.9534 16.3545 12.667C15.9892 12.3877 15.7334 12.0069 15.5537 11.5967C15.2012 10.7917 15.0869 9.74811 15.0869 8.69336C15.0869 7.63955 15.1991 6.59525 15.5508 5.79004C15.73 5.37973 15.9858 4.99824 16.3516 4.71875C16.7269 4.43214 17.1785 4.2832 17.6846 4.2832C18.1906 4.2832 18.6423 4.43214 19.0176 4.71875C19.3834 4.99824 19.6391 5.37973 19.8184 5.79004C20.17 6.59525 20.2822 7.63955 20.2822 8.69336Z" fill="#15C674"/>
</svg>
