<svg width="24" height="24" viewBox="0 0 24 24" fill="none" xmlns="http://www.w3.org/2000/svg">
<path d="M18.0029 15.5273C18.3616 15.5277 18.6514 15.819 18.6514 16.1777C18.6514 16.5367 18.3608 16.828 18.002 16.8281H16.6426C16.2838 16.8279 15.9922 16.5366 15.9922 16.1777C15.9922 15.8187 16.2846 15.5273 16.6436 15.5273H18.0029Z" fill="#15C674"/>
<path fill-rule="evenodd" clip-rule="evenodd" d="M17.2021 11.666C18.0302 11.6664 18.702 12.3379 18.7021 13.166V13.7217C19.6917 13.7269 20.493 14.5308 20.4932 15.5215V18.4072C20.4932 19.4011 19.6871 20.2066 18.6934 20.207H18.5664C18.3302 20.7251 17.8085 21.0857 17.2021 21.0859H13.2432C12.6365 21.0859 12.1142 20.7252 11.8779 20.207H11.7529C10.759 20.2068 9.95312 19.4012 9.95312 18.4072V15.5215C9.95334 14.5308 10.7536 13.7269 11.7432 13.7217V13.166C11.7433 12.3377 12.4149 11.6661 13.2432 11.666H17.2021ZM13.2432 18.8105C13.1881 18.8107 13.1437 18.8551 13.1436 18.9102V19.5859C13.1437 19.641 13.1881 19.6854 13.2432 19.6855H17.2021C17.257 19.6852 17.3017 19.6408 17.3018 19.5859V18.9102C17.3017 18.8553 17.257 18.8109 17.2021 18.8105H13.2432ZM11.7529 15.1221C11.5323 15.1223 11.3537 15.3009 11.3535 15.5215V18.4072C11.3535 18.6262 11.5288 18.8035 11.7471 18.8066C11.8004 18.0267 12.4497 17.4103 13.2432 17.4102H17.2021C17.9953 17.4105 18.643 18.0269 18.6963 18.8066C18.9155 18.8046 19.0928 18.6269 19.0928 18.4072V15.5215C19.0926 15.301 18.9138 15.1225 18.6934 15.1221H11.7529ZM13.2432 13.0664C13.1881 13.0665 13.1437 13.1109 13.1436 13.166V13.7217H17.3018V13.166C17.3017 13.1111 17.257 13.0668 17.2021 13.0664H13.2432Z" fill="#15C674"/>
<path fill-rule="evenodd" clip-rule="evenodd" d="M13.6162 4.00977C14.2592 4.00871 14.8903 4.3098 15.335 4.68652L15.5137 4.85254L15.5176 4.85645L17.6777 7.08203C17.9652 7.3731 18.1889 7.70812 18.3457 8.09277C18.5319 8.54967 18.4997 9.02704 18.499 9.2832V10.0684C18.499 10.4548 18.1852 10.7683 17.7988 10.7686C17.4124 10.7683 17.0996 10.4548 17.0996 10.0684V9.79492H14.7861C14.2324 9.79492 13.7 9.57641 13.3076 9.18555C12.9153 8.79471 12.6945 8.2638 12.6943 7.70996V5.40918H8.46484C8.09936 5.40918 7.90353 5.42378 7.74414 5.4707C7.60737 5.51108 7.45372 5.58924 7.22852 5.80176C6.98913 6.02782 6.88871 6.34929 6.88867 7.11621V16.9189C6.88868 17.5529 6.96834 17.9153 7.20703 18.1572C7.39385 18.3465 7.53095 18.4407 7.66699 18.4971C7.8057 18.5543 7.99825 18.5947 8.32617 18.5947C8.71255 18.595 9.02637 18.9085 9.02637 19.2949C9.02623 19.6812 8.71246 19.9949 8.32617 19.9951C7.88651 19.9951 7.49541 19.9409 7.13086 19.79C6.76374 19.638 6.47571 19.4089 6.21094 19.1406C5.54586 18.4667 5.48731 17.5801 5.4873 16.9189V7.11621C5.48733 6.30358 5.5715 5.44025 6.26758 4.7832C6.61229 4.4579 6.95266 4.2447 7.34863 4.12793C7.72197 4.01795 8.10065 4.00879 8.46484 4.00879L13.6162 4.00977ZM14.0947 7.70996C14.0948 7.89077 14.1668 8.06469 14.2959 8.19336C14.4253 8.32224 14.6019 8.39551 14.7861 8.39551H16.9346C16.8644 8.27778 16.7821 8.16817 16.6816 8.06641L16.6777 8.06152L14.5166 5.83496L14.418 5.74414C14.3196 5.66214 14.2078 5.59212 14.0947 5.53711V7.70996Z" fill="#15C674"/>
</svg>
