<svg width="24" height="24" viewBox="0 0 24 24" fill="none" xmlns="http://www.w3.org/2000/svg">
<path d="M14.917 5.02441C15.3036 5.02442 15.6172 5.33802 15.6172 5.72461C15.6172 6.1112 15.3036 6.42479 14.917 6.4248H7.47754C6.75957 6.42481 6.17773 7.00664 6.17773 7.72461V16.3301C6.17799 17.0478 6.75973 17.6299 7.47754 17.6299H16.6279C17.0145 17.6299 17.3281 17.9435 17.3281 18.3301C17.3279 18.7165 17.0144 19.0293 16.6279 19.0293H7.47754C5.98653 19.0293 4.7776 17.821 4.77734 16.3301V7.72461C4.77734 6.23344 5.98637 5.02441 7.47754 5.02441H14.917Z" fill="#15C674"/>
<path fill-rule="evenodd" clip-rule="evenodd" d="M15.1846 9.05762C15.3657 8.50809 16.1431 8.50807 16.3242 9.05762L16.9336 10.9092C16.9931 11.09 17.1346 11.2324 17.3154 11.292L19.168 11.9014C19.7179 12.0823 19.7178 12.86 19.168 13.041L17.3154 13.6504C17.1349 13.7099 16.9932 13.8518 16.9336 14.0322L16.3242 15.8848L16.2832 15.9814C16.0636 16.4025 15.4441 16.4027 15.2246 15.9814L15.1846 15.8848L14.5752 14.0322C14.523 13.8742 14.4078 13.7452 14.2588 13.6758L14.1924 13.6504L12.3408 13.041C11.7908 12.8601 11.7908 12.0823 12.3408 11.9014L14.1924 11.292C14.3506 11.2399 14.4793 11.1247 14.5488 10.9756L14.5752 10.9092L15.1846 9.05762ZM15.7539 11.4561C15.5614 11.9147 15.1979 12.2782 14.7393 12.4707C15.1978 12.6631 15.5613 13.0269 15.7539 13.4854C15.9465 13.027 16.3102 12.6632 16.7686 12.4707C16.31 12.2781 15.9463 11.9147 15.7539 11.4561Z" fill="#15C674"/>
<path d="M11.4482 14.458C11.8348 14.458 12.1484 14.7716 12.1484 15.1582C12.1484 15.5448 11.8348 15.8584 11.4482 15.8584H8.40137C8.01477 15.8584 7.70117 15.5448 7.70117 15.1582C7.70117 14.7716 8.01477 14.458 8.40137 14.458H11.4482Z" fill="#15C674"/>
<path d="M9.87891 11.5029C10.2654 11.503 10.5791 11.8166 10.5791 12.2031C10.5791 12.5897 10.2654 12.9032 9.87891 12.9033H8.40137C8.01477 12.9033 7.70117 12.5897 7.70117 12.2031C7.70117 11.8165 8.01477 11.5029 8.40137 11.5029H9.87891Z" fill="#15C674"/>
<path d="M11.6641 8.54004C12.0506 8.54011 12.3643 8.85368 12.3643 9.24023C12.3643 9.62679 12.0506 9.94035 11.6641 9.94043H8.40137C8.01477 9.94043 7.70117 9.62683 7.70117 9.24023C7.70117 8.85364 8.01477 8.54004 8.40137 8.54004H11.6641Z" fill="#15C674"/>
<path d="M18.1211 6.79395C18.2444 6.43321 18.7545 6.4333 18.8779 6.79395L19.0596 7.32422C19.0996 7.44138 19.1915 7.53417 19.3086 7.57422L19.8389 7.75488C20.1998 7.87815 20.1998 8.38845 19.8389 8.51172L19.3086 8.69336C19.1915 8.73339 19.0996 8.82529 19.0596 8.94238L18.8779 9.47266C18.7547 9.83364 18.2444 9.83364 18.1211 9.47266L17.9404 8.94238C17.9104 8.85453 17.8506 8.78067 17.7734 8.73242L17.6904 8.69336L17.1602 8.51172C16.7995 8.38829 16.7994 7.87821 17.1602 7.75488L17.4521 7.6543L17.6904 7.57422C17.7783 7.54421 17.8521 7.48439 17.9004 7.40723L17.9404 7.32422L18.1211 6.79395Z" fill="#15C674"/>
</svg>
