<svg width="24" height="24" viewBox="0 0 24 24" fill="none" xmlns="http://www.w3.org/2000/svg">
<path d="M9.39307 18.6377L9.39307 5.94629C9.39307 5.55969 9.70666 5.24609 10.0933 5.24609C10.4799 5.24609 10.7935 5.55969 10.7935 5.94629L10.7935 18.6377C10.7933 19.0241 10.4797 19.3369 10.0933 19.3369C9.70679 19.3369 9.39327 19.0241 9.39307 18.6377Z" fill="#15C674"/>
<path d="M5.5791 18.6377L5.5791 8.83398C5.5791 8.44739 5.8927 8.13379 6.2793 8.13379C6.6659 8.13379 6.97949 8.44738 6.97949 8.83398L6.97949 18.6377C6.97949 19.0243 6.6659 19.3379 6.2793 19.3379C5.8927 19.3379 5.5791 19.0243 5.5791 18.6377Z" fill="#15C674"/>
<path d="M13.207 18.6377L13.207 11.2285C13.207 10.8419 13.5206 10.5283 13.9072 10.5283C14.2938 10.5283 14.6074 10.8419 14.6074 11.2285L14.6074 18.6377C14.6074 19.0243 14.2938 19.3379 13.9072 19.3379C13.5206 19.3379 13.207 19.0243 13.207 18.6377Z" fill="#15C674"/>
<path d="M17.021 18.6377L17.021 8.11133C17.021 7.72473 17.3346 7.41113 17.7212 7.41113C18.1078 7.41113 18.4214 7.72473 18.4214 8.11133L18.4214 18.6377C18.4211 19.0241 18.1076 19.3369 17.7212 19.3369C17.3348 19.3369 17.0213 19.0241 17.021 18.6377Z" fill="#15C674"/>
</svg>
