<svg width="24" height="24" viewBox="0 0 24 24" fill="none" xmlns="http://www.w3.org/2000/svg">
<path d="M5.38672 8.19434C5.77332 8.19434 6.08691 8.50793 6.08691 8.89453V18.6377C6.08667 19.0241 5.77317 19.3369 5.38672 19.3369C5.00027 19.3369 4.68677 19.0241 4.68652 18.6377V8.89453C4.68652 8.50793 5.00012 8.19434 5.38672 8.19434Z" fill="#15C674"/>
<path d="M9.18652 3.89551C9.57312 3.89551 9.88672 4.2091 9.88672 4.5957V12.9346C9.62727 13.6519 9.48535 14.4256 9.48535 15.2324C9.48535 16.039 9.62747 16.8122 9.88672 17.5293V18.6377C9.88647 19.0241 9.57297 19.3369 9.18652 19.3369C8.80008 19.3369 8.48658 19.0241 8.48633 18.6377V4.5957C8.48633 4.2091 8.79992 3.89551 9.18652 3.89551Z" fill="#15C674"/>
<path d="M12.9863 6.79004C13.3729 6.79004 13.6865 7.10364 13.6865 7.49023V8.97754C13.187 9.18178 12.7175 9.44382 12.2861 9.75586V7.49023C12.2861 7.10364 12.5997 6.79004 12.9863 6.79004Z" fill="#15C674"/>
<path d="M16.7861 5.85352C17.1727 5.85352 17.4863 6.16711 17.4863 6.55371V8.59277C17.0827 8.51755 16.6667 8.47656 16.2412 8.47656C16.1893 8.47656 16.1376 8.4793 16.0859 8.48047V6.55371C16.0859 6.16711 16.3995 5.85352 16.7861 5.85352Z" fill="#15C674"/>
<path d="M20.1455 15.2324C20.1455 13.0763 18.3973 11.3283 16.2412 11.3281C14.085 11.3281 12.3369 13.0762 12.3369 15.2324C12.3371 17.3885 14.0851 19.1367 16.2412 19.1367C18.3972 19.1365 20.1453 17.3884 20.1455 15.2324ZM21.5449 15.2324C21.5447 18.1616 19.1704 20.536 16.2412 20.5361C13.3119 20.5361 10.9367 18.1617 10.9365 15.2324C10.9365 12.303 13.3118 9.92773 16.2412 9.92773C19.1705 9.92791 21.5449 12.3031 21.5449 15.2324Z" fill="#15C674"/>
<path d="M14.2349 16.666V13.7969C14.2349 13.4103 14.5485 13.0967 14.9351 13.0967C15.3216 13.0967 15.6353 13.4103 15.6353 13.7969V16.666C15.6353 17.0526 15.3216 17.3662 14.9351 17.3662C14.5485 17.3662 14.2349 17.0526 14.2349 16.666ZM16.8462 16.666V13.7969C16.8462 13.4103 17.1598 13.0967 17.5464 13.0967C17.9329 13.0968 18.2466 13.4103 18.2466 13.7969V16.666C18.2466 17.0525 17.9329 17.3661 17.5464 17.3662C17.1598 17.3662 16.8462 17.0526 16.8462 16.666Z" fill="#15C674"/>
</svg>
