<svg width="24" height="24" viewBox="0 0 24 24" fill="none" xmlns="http://www.w3.org/2000/svg">
<path d="M9 16.2998C9.93879 16.2999 10.7002 17.0612 10.7002 18C10.7001 18.9387 9.93873 19.7001 9 19.7002C8.06118 19.7002 7.29991 18.9388 7.2998 18C7.2998 17.0611 8.06112 16.2998 9 16.2998Z" fill="#15C674"/>
<path d="M16 16.2998C16.9388 16.2999 17.7002 17.0612 17.7002 18C17.7001 18.9387 16.9387 19.7001 16 19.7002C15.0612 19.7002 14.2999 18.9388 14.2998 18C14.2998 17.0611 15.0611 16.2998 16 16.2998Z" fill="#15C674"/>
<path d="M14.4111 9.23926C14.686 8.96765 15.1296 8.97031 15.4014 9.24512C15.6728 9.52001 15.6702 9.96362 15.3955 10.2354L12.627 12.9727C12.3717 13.2251 11.9666 13.2438 11.6895 13.0156L10.0283 11.6465C9.73004 11.4006 9.68774 10.9595 9.93359 10.6611C10.1795 10.3629 10.6206 10.3206 10.9189 10.5664L12.0918 11.5322L14.4111 9.23926Z" fill="#15C674"/>
<path fill-rule="evenodd" clip-rule="evenodd" d="M5.49707 4.2998C5.82304 4.29992 6.10555 4.5251 6.17871 4.84277L6.58008 6.58496H19C19.2089 6.58502 19.4071 6.67865 19.54 6.83984C19.673 7.00108 19.7263 7.21377 19.6865 7.41895L18.4521 13.7861C18.3527 14.302 18.0994 14.7812 17.7158 15.1348C17.3299 15.4905 16.8338 15.6982 16.3066 15.6992H8.99316C8.45784 15.7102 7.94926 15.5072 7.55371 15.1494C7.16205 14.795 6.90375 14.3112 6.80273 13.7891L4.93945 5.7002H4C3.61347 5.7002 3.29991 5.38651 3.2998 5C3.2998 4.6134 3.6134 4.2998 4 4.2998H5.49707ZM8.16992 13.4883C8.17206 13.4976 8.17403 13.5072 8.17578 13.5166C8.22296 13.768 8.34247 13.975 8.49316 14.1113C8.64159 14.2456 8.80955 14.3038 8.9668 14.2998H16.3037C16.4578 14.2994 16.6229 14.2389 16.7676 14.1055C16.9143 13.97 17.03 13.767 17.0771 13.5215L18.1514 7.98535H6.90234L8.16992 13.4883Z" fill="#15C674"/>
</svg>
