<svg width="24" height="24" viewBox="0 0 24 24" fill="none" xmlns="http://www.w3.org/2000/svg">
<path d="M18.6997 10.1104H15.1802V17.6992H17.1997C18.0281 17.6992 18.6997 17.0276 18.6997 16.1992V10.1104ZM10.2202 17.6992H13.7798V10.1104H10.2202V17.6992ZM10.2202 8.70996H13.7798V6.2998H10.2202V8.70996ZM5.30029 16.1992C5.30029 17.0276 5.97187 17.6992 6.80029 17.6992H8.8208V10.1104H5.31299C5.30874 10.1104 5.30453 10.1085 5.30029 10.1084V16.1992ZM18.6997 7.7998C18.6997 6.97138 18.0281 6.2998 17.1997 6.2998H15.1802V8.70996H18.6997V7.7998ZM5.30029 8.71094C5.30452 8.71086 5.30874 8.70996 5.31299 8.70996H8.8208V6.2998H6.80029C5.97187 6.2998 5.30029 6.97138 5.30029 7.7998V8.71094ZM20.1001 16.1992C20.1001 17.8008 18.8013 19.0996 17.1997 19.0996H6.80029C5.19867 19.0996 3.8999 17.8008 3.8999 16.1992V7.7998C3.8999 6.19818 5.19867 4.89941 6.80029 4.89941H17.1997C18.8013 4.89941 20.1001 6.19818 20.1001 7.7998V16.1992Z" fill="#15C674"/>
</svg>
