<svg xmlns="http://www.w3.org/2000/svg" width="24" height="24" fill="none"><path fill="#333333" d="M13.783 12.78a.7.7 0 0 1 .99 0l1.376 1.375 1.376-1.376a.7.7 0 0 1 .99.99l-1.375 1.377 1.376 1.375a.7.7 0 0 1-.99.99l-1.377-1.375-1.376 1.376a.7.7 0 0 1-.99-.99l1.376-1.376-1.376-1.377a.7.7 0 0 1 0-.99Zm2.728-6.176v-.407h-3.96L10.18 17.584h1.299a.7.7 0 0 1 0 1.4h-3.9a.7.7 0 0 1 0-1.4h1.17L11.12 6.197H7.025v.407a.7.7 0 0 1-1.4 0V5.497a.7.7 0 0 1 .7-.7h10.886a.7.7 0 0 1 .7.7v1.107a.7.7 0 0 1-1.4 0Z"/></svg>
