<svg width="24" height="24" viewBox="0 0 24 24" fill="none" xmlns="http://www.w3.org/2000/svg">
<path d="M12.0215 6.72341C12.7798 6.72341 13.3945 7.33813 13.3945 8.09644C13.3944 8.36575 13.3157 8.61592 13.1816 8.82788L15.0889 12.1316C15.5816 11.9442 16.1074 11.8506 16.6387 11.862C17.4075 11.8786 18.1562 12.1109 18.7998 12.5319C19.4434 12.9531 19.9562 13.5468 20.2793 14.2448C20.6022 14.9428 20.7234 15.718 20.6279 16.4811C20.5323 17.2441 20.2242 17.9654 19.7392 18.5621C19.2542 19.159 18.6113 19.6084 17.8838 19.858C17.1562 20.1076 16.3724 20.1477 15.623 19.9742C14.8739 19.8008 14.1883 19.4202 13.6445 18.8766C13.3712 18.6033 13.3713 18.1597 13.6445 17.8864C13.9178 17.6133 14.3605 17.6133 14.6338 17.8864C14.9924 18.2449 15.4454 18.4956 15.9394 18.61C16.4334 18.7242 16.9501 18.6983 17.4297 18.5338C17.9091 18.3693 18.3326 18.0727 18.6523 17.6793C18.972 17.2859 19.1752 16.8103 19.2383 16.3073C19.3012 15.8042 19.2217 15.2929 19.0088 14.8327C18.7958 14.3725 18.4575 13.9815 18.0332 13.7038C17.6089 13.4262 17.1153 13.2724 16.6084 13.2614C16.1122 13.2508 15.6226 13.3774 15.1933 13.6257C15.1814 13.6336 15.1708 13.6448 15.1582 13.652C14.8235 13.8446 14.3953 13.7296 14.2021 13.3952L11.9326 9.46361C11.2161 9.41753 10.6486 8.8245 10.6484 8.09644C10.6484 7.33828 11.2634 6.72365 12.0215 6.72341ZM6.38771 11.9655C6.76107 11.8656 7.14606 12.0873 7.2461 12.4606C7.34576 12.8337 7.12394 13.2178 6.75099 13.3181C6.26149 13.4492 5.81757 13.7143 5.47169 14.0847C5.12583 14.4551 4.89128 14.9164 4.79396 15.4137C4.69679 15.9111 4.7411 16.4267 4.92189 16.9001C5.10272 17.3731 5.41273 17.7857 5.81642 18.0914C6.22042 18.3973 6.70238 18.5838 7.20704 18.6295C7.71188 18.6751 8.22043 18.5788 8.67286 18.3502C9.12508 18.1217 9.50486 17.7708 9.76758 17.3375C10.0303 16.9041 10.1657 16.4049 10.1592 15.8981C10.1561 15.6534 10.2792 15.4368 10.4678 15.3093C10.4739 15.3051 10.481 15.3025 10.4873 15.2985C10.5189 15.2786 10.5512 15.2596 10.5859 15.2448C10.5966 15.2402 10.6082 15.2381 10.6191 15.2341C10.6506 15.2225 10.6824 15.2117 10.7158 15.2048C10.7324 15.2013 10.7496 15.2012 10.7666 15.1989C10.7939 15.1953 10.8214 15.1895 10.8496 15.1891H15.4189C15.8217 14.6039 16.6124 14.4167 17.2383 14.778C17.8963 15.1579 18.1221 15.9998 17.7422 16.6579C17.3622 17.3158 16.5203 17.5407 15.8623 17.1608C15.6211 17.0215 15.4387 16.8201 15.3223 16.5885H11.5039C11.4199 17.1081 11.239 17.6094 10.9639 18.0631C10.5652 18.7206 9.98904 19.2525 9.30274 19.5992C8.61652 19.9458 7.84673 20.0932 7.08107 20.024C6.31537 19.9548 5.58367 19.6727 4.97072 19.2086C4.35795 18.7446 3.88861 18.1171 3.61428 17.3991C3.34 16.6809 3.27249 15.8997 3.41994 15.1452C3.56755 14.3906 3.92354 13.6916 4.44826 13.1296C4.97288 12.5677 5.64518 12.1646 6.38771 11.9655ZM10.4248 4.31035C11.1332 4.01156 11.9117 3.91741 12.6709 4.03887C13.4303 4.16047 14.1409 4.49362 14.7207 4.99882C15.3003 5.50397 15.7278 6.16183 15.9521 6.89723C16.1763 7.63257 16.1892 8.41636 15.9902 9.15893C15.8901 9.53222 15.5061 9.75396 15.1328 9.65404C14.7595 9.55393 14.5378 9.16993 14.6377 8.79663C14.7689 8.30693 14.7602 7.78936 14.6123 7.30446C14.4643 6.81982 14.1828 6.38638 13.8008 6.05349C13.4186 5.72058 12.9506 5.50184 12.4502 5.42166C11.9496 5.34151 11.4359 5.40336 10.9687 5.60037C10.5019 5.79742 10.0995 6.12164 9.80762 6.53591C9.51573 6.95031 9.34565 7.43898 9.31739 7.94507C9.28925 8.45091 9.40369 8.95504 9.64746 9.39916C9.89133 9.84316 10.2554 10.21 10.6973 10.4577C10.8679 10.5534 10.9825 10.7105 11.0303 10.8855C11.0341 10.8992 11.0351 10.9135 11.0381 10.9275C11.0532 11 11.0593 11.0744 11.0508 11.1491C11.047 11.1831 11.0382 11.2162 11.0293 11.2497C11.0264 11.2607 11.025 11.272 11.0215 11.2829C11.0065 11.3298 10.9875 11.3762 10.9619 11.4206L8.69434 15.3464C8.99759 15.9874 8.76368 16.7638 8.13868 17.1247C7.48051 17.5045 6.63877 17.2789 6.2588 16.6208C5.87903 15.9626 6.10462 15.1209 6.76271 14.7409C7.00534 14.6008 7.27304 14.5434 7.53321 14.5593L9.42774 11.278C9.01983 10.9456 8.67634 10.5381 8.42091 10.073C8.05089 9.39906 7.87716 8.63457 7.91993 7.86695C7.96281 7.09912 8.2202 6.35797 8.66309 5.72928C9.10589 5.10076 9.71644 4.60922 10.4248 4.31035Z" fill="#15C674"/>
</svg>
