<svg width="24" height="24" viewBox="0 0 24 24" fill="none" xmlns="http://www.w3.org/2000/svg">
<path d="M14.9814 14.4121C15.6382 14.3233 16.201 14.6063 16.6719 15.0498C16.9532 15.3148 16.9661 15.7577 16.7012 16.0391C16.436 16.3203 15.9932 16.3334 15.7119 16.0684C15.4261 15.7992 15.2654 15.7861 15.1699 15.7988C15.0247 15.8185 14.7697 15.9344 14.3662 16.3379L13.0938 17.6104C12.5805 18.1239 12.5867 18.7281 12.9746 19.1162C13.3234 19.4649 13.9518 19.47 14.5127 18.9092C14.786 18.6361 15.2296 18.6362 15.5029 18.9092C15.7762 19.1825 15.7761 19.626 15.5029 19.8994C14.6195 20.7828 13.0799 21.2019 11.9844 20.1064C10.9284 19.0503 11.1738 17.5508 12.1045 16.6201L13.376 15.3477C13.8468 14.8769 14.3747 14.4943 14.9814 14.4121Z" fill="#15C674"/>
<path fill-rule="evenodd" clip-rule="evenodd" d="M13.6162 4.00977C14.2592 4.00871 14.8903 4.3098 15.335 4.68652L15.5137 4.85254L15.5176 4.85645L17.6777 7.08203C17.9652 7.3731 18.1889 7.70812 18.3457 8.09277C18.5319 8.54967 18.4997 9.02704 18.499 9.2832V10.0684C18.499 10.4548 18.1852 10.7683 17.7988 10.7686C17.4124 10.7683 17.0996 10.4548 17.0996 10.0684V9.79492H14.7861C14.2324 9.79492 13.7 9.57641 13.3076 9.18555C12.9153 8.79471 12.6945 8.2638 12.6943 7.70996V5.40918H8.46484C8.09936 5.40918 7.90353 5.42378 7.74414 5.4707C7.60737 5.51108 7.45372 5.58924 7.22852 5.80176C6.98913 6.02782 6.88871 6.34929 6.88867 7.11621V16.9189C6.88868 17.5529 6.96834 17.9153 7.20703 18.1572C7.39385 18.3465 7.53095 18.4407 7.66699 18.4971C7.8057 18.5543 7.99825 18.5947 8.32617 18.5947H9.52344C9.90965 18.5952 10.2227 18.9086 10.2227 19.2949C10.2225 19.6811 9.90957 19.9947 9.52344 19.9951H8.32617C7.88651 19.9951 7.49541 19.9409 7.13086 19.79C6.76374 19.638 6.47571 19.4089 6.21094 19.1406C5.54586 18.4667 5.48731 17.5801 5.4873 16.9189V7.11621C5.48733 6.30358 5.5715 5.44025 6.26758 4.7832C6.61229 4.4579 6.95266 4.2447 7.34863 4.12793C7.72197 4.01795 8.10065 4.00879 8.46484 4.00879L13.6162 4.00977ZM14.0947 7.70996C14.0948 7.89077 14.1668 8.06469 14.2959 8.19336C14.4253 8.32224 14.6019 8.39551 14.7861 8.39551H16.9346C16.8644 8.27778 16.7821 8.16817 16.6816 8.06641L16.6777 8.06152L14.5166 5.83496L14.418 5.74414C14.3196 5.66214 14.2078 5.59212 14.0947 5.53711V7.70996Z" fill="#15C674"/>
<path d="M18.1191 12.1094C18.7147 12.1154 19.2868 12.3597 19.7617 12.835C20.2991 13.3726 20.5318 14.0257 20.4668 14.6885C20.4117 15.2482 20.1506 15.758 19.7881 16.1748L19.627 16.3477L18.2129 17.7637C17.7088 18.2676 17.1259 18.5988 16.4727 18.5986C15.8195 18.5983 15.2635 18.2674 14.8115 17.8154C14.5384 17.5422 14.5385 17.0985 14.8115 16.8252C15.0848 16.5519 15.5284 16.552 15.8018 16.8252C16.1035 17.127 16.3248 17.199 16.4736 17.1992C16.6225 17.1991 16.8694 17.1265 17.2227 16.7734L18.6367 15.3584C18.9134 15.0816 19.0495 14.7929 19.0732 14.5518C19.0946 14.3339 19.0335 14.0863 18.7715 13.8242C18.535 13.5877 18.3058 13.5118 18.1055 13.5098C17.893 13.5077 17.6451 13.5887 17.3965 13.7793C17.0898 14.0142 16.6503 13.9569 16.415 13.6504C16.18 13.3438 16.2377 12.9043 16.5439 12.6689C16.9908 12.3262 17.536 12.1037 18.1191 12.1094Z" fill="#15C674"/>
<path d="M11.1406 14.2744C11.5272 14.2744 11.8408 14.588 11.8408 14.9746C11.8408 15.3612 11.5272 15.6748 11.1406 15.6748H9.5C9.1134 15.6748 8.7998 15.3612 8.7998 14.9746C8.7998 14.588 9.1134 14.2744 9.5 14.2744H11.1406Z" fill="#15C674"/>
<path d="M13.8379 11.2744C14.2245 11.2745 14.5381 11.588 14.5381 11.9746C14.5381 12.3612 14.2245 12.6748 13.8379 12.6748H9.5C9.1134 12.6748 8.7998 12.3612 8.7998 11.9746C8.7998 11.588 9.1134 11.2744 9.5 11.2744H13.8379Z" fill="#15C674"/>
</svg>
