<svg width="24" height="24" viewBox="0 0 24 24" fill="none" xmlns="http://www.w3.org/2000/svg">
<path d="M12.8594 12.127C12.5877 12.306 12.2185 12.2762 11.9795 12.0371C11.7068 11.7638 11.7067 11.3211 11.9795 11.0479L17.1348 5.89258L17.2422 5.80566C17.2279 5.80505 17.2136 5.80274 17.1992 5.80274L14.6963 5.80273C14.3097 5.80273 13.9961 5.48914 13.9961 5.10254C13.9961 4.71594 14.3097 4.40234 14.6963 4.40234L17.1992 4.40234C18.5245 4.40257 19.5986 5.47739 19.5986 6.80274V9.55664C19.5986 9.94324 19.285 10.2568 18.8984 10.2568C18.512 10.2566 18.1992 9.94312 18.1992 9.55664V6.79199C18.1768 6.82352 18.1523 6.85455 18.124 6.88281L12.9697 12.0371L12.8594 12.127Z" fill="#333333"/>
<path d="M7.40234 19.5986C5.74587 19.5983 4.40245 18.2552 4.40234 16.5986L4.40234 7.40234C4.40245 5.74581 5.74587 4.40271 7.40234 4.40234L10.7168 4.40234C11.1034 4.40234 11.417 4.71594 11.417 5.10254C11.417 5.48914 11.1034 5.80273 10.7168 5.80273L7.40234 5.80273C6.51907 5.8031 5.80284 6.51901 5.80274 7.40234L5.80273 16.5986C5.80284 17.482 6.51907 18.1979 7.40234 18.1982L16.5986 18.1982C17.4821 18.1981 18.1981 17.4821 18.1982 16.5986V13.7041C18.1985 13.3179 18.5122 13.0051 18.8984 13.0049C19.2849 13.0049 19.5984 13.3177 19.5986 13.7041V16.5986C19.5985 18.2553 18.2553 19.5985 16.5986 19.5986L7.40234 19.5986Z" fill="#333333"/>
</svg>
