<svg width="24" height="24" viewBox="0 0 24 24" fill="none" xmlns="http://www.w3.org/2000/svg">
<path d="M19.3779 14.8252C19.3779 13.0027 17.9007 11.5254 16.0781 11.5254C14.2556 11.5254 12.7783 13.0027 12.7783 14.8252C12.7783 16.6477 14.2556 18.125 16.0781 18.125C17.9007 18.125 19.3779 16.6477 19.3779 14.8252ZM15.2783 13.0244C15.2783 12.6378 15.5919 12.3242 15.9785 12.3242C16.3651 12.3242 16.6787 12.6378 16.6787 13.0244V14.3242H17.9785C18.3651 14.3242 18.6787 14.6378 18.6787 15.0244C18.6787 15.411 18.3651 15.7246 17.9785 15.7246H15.9785C15.7929 15.7246 15.6147 15.6508 15.4834 15.5195C15.3521 15.3883 15.2783 15.2101 15.2783 15.0244V13.0244ZM14.7314 6.94922V6.31445H9.25195V6.94922C9.25195 7.33582 8.93836 7.64941 8.55176 7.64941C8.16516 7.64941 7.85156 7.33582 7.85156 6.94922V6.31445H6.69336C5.92047 6.31466 5.29416 6.94098 5.29395 7.71387V9.64453C5.30366 9.64413 5.31343 9.64258 5.32324 9.64258L10.8389 9.6416C11.2254 9.64168 11.539 9.95527 11.5391 10.3418C11.5391 10.7283 11.2254 11.0419 10.8389 11.042H5.32324C5.31339 11.042 5.3037 11.0395 5.29395 11.0391V16.2988C5.29416 17.0717 5.92047 17.698 6.69336 17.6982H10.3037C10.6903 17.6982 11.0039 18.0118 11.0039 18.3984C11.0039 18.785 10.6903 19.0986 10.3037 19.0986H6.69336C5.14727 19.0984 3.89377 17.8449 3.89355 16.2988V7.71387C3.89377 6.16778 5.14727 4.91427 6.69336 4.91406H7.85156V4.51953C7.85156 4.13293 8.16516 3.81934 8.55176 3.81934C8.93836 3.81934 9.25195 4.13293 9.25195 4.51953V4.91406H14.7314V4.51953C14.7314 4.13293 15.045 3.81934 15.4316 3.81934C15.8182 3.81934 16.1318 4.13293 16.1318 4.51953V4.91406H17.3105C18.8566 4.91427 20.1101 6.16778 20.1104 7.71387V9.11621C20.1104 9.50281 19.7968 9.81641 19.4102 9.81641C19.0236 9.81641 18.71 9.50281 18.71 9.11621V7.71387C18.7098 6.94098 18.0834 6.31466 17.3105 6.31445H16.1318V6.94922C16.1318 7.33582 15.8182 7.64941 15.4316 7.64941C15.045 7.64941 14.7314 7.33582 14.7314 6.94922ZM20.7783 14.8252C20.7783 17.4209 18.6739 19.5254 16.0781 19.5254C13.4824 19.5254 11.3779 17.4209 11.3779 14.8252C11.3779 12.2295 13.4824 10.125 16.0781 10.125C18.6739 10.125 20.7783 12.2295 20.7783 14.8252Z" fill="#15C674"/>
</svg>
