<svg width="24" height="24" viewBox="0 0 24 24" fill="none" xmlns="http://www.w3.org/2000/svg">
<path fill-rule="evenodd" clip-rule="evenodd" d="M15.9062 4.44336C16.3772 4.44349 16.828 4.63911 17.1494 4.9834L18.7637 6.71289C19.0573 7.02763 19.2207 7.44263 19.2207 7.87305V11.5645C19.2207 11.9509 18.9069 12.2644 18.5205 12.2646C18.1339 12.2646 17.8203 11.951 17.8203 11.5645V8.28711H6.14453V17.1387C6.14453 17.307 6.21416 17.4768 6.35156 17.6074C6.49031 17.7391 6.68661 17.8193 6.89746 17.8193H11.1465C11.5326 17.8199 11.8457 18.1333 11.8457 18.5195C11.8455 18.9056 11.5325 19.2182 11.1465 19.2188H6.89746C6.33788 19.2188 5.79385 19.0077 5.3877 18.6221C4.98045 18.2351 4.74316 17.7022 4.74316 17.1387V7.87305C4.74318 7.44251 4.90744 7.02766 5.20117 6.71289L6.81543 4.9834C7.13692 4.63912 7.58753 4.44336 8.05859 4.44336H15.9062ZM8.05859 5.84375C7.97561 5.84375 7.89558 5.87793 7.83887 5.93848L6.9541 6.88672H17.0107L16.126 5.93848C16.0694 5.87792 15.9891 5.84388 15.9062 5.84375H8.05859Z" fill="#15C674"/>
<path fill-rule="evenodd" clip-rule="evenodd" d="M16.4033 15.2607C16.9549 15.261 17.4032 15.7082 17.4033 16.2598L17.3975 16.3623C17.3462 16.866 16.9205 17.2595 16.4033 17.2598L16.3018 17.2539C15.7977 17.2029 15.4043 16.7773 15.4043 16.2598C15.4044 15.7081 15.8516 15.2609 16.4033 15.2607Z" fill="#15C674"/>
<path fill-rule="evenodd" clip-rule="evenodd" d="M16.4229 13.3037C18.0397 13.2753 19.235 14.2855 20.1133 15.3887C20.1417 15.4244 20.241 15.5421 20.3135 15.6582C20.3937 15.787 20.496 15.9935 20.4961 16.2588C20.4961 16.5219 20.3959 16.7278 20.3174 16.8564C20.247 16.9717 20.1494 17.0906 20.1221 17.126C19.2406 18.2665 18.0343 19.2456 16.4229 19.2168L16.4238 19.2178C16.4182 19.2179 16.4119 19.2167 16.4062 19.2168C16.3993 19.2166 16.3917 19.2179 16.3848 19.2178C14.6843 19.2481 13.365 18.1676 12.5078 16.8857L12.4648 16.8125L12.4639 16.8096L12.4619 16.8066C12.4606 16.8041 12.4588 16.8006 12.457 16.7969C12.4533 16.7892 12.448 16.7787 12.4424 16.7666C12.4313 16.7427 12.4161 16.7082 12.4004 16.6689C12.3881 16.6382 12.3444 16.5317 12.3232 16.3994L12.3115 16.2598L12.3232 16.1211C12.3444 15.9889 12.3882 15.8821 12.4004 15.8516C12.4159 15.8125 12.4314 15.7787 12.4424 15.7549C12.4479 15.743 12.4523 15.7323 12.4561 15.7246L12.4639 15.709C12.4783 15.6803 12.4954 15.6514 12.5137 15.625C13.3664 14.3885 14.6786 13.2738 16.3848 13.3037C16.3917 13.3036 16.3993 13.3039 16.4062 13.3037C16.4119 13.3038 16.4182 13.3026 16.4238 13.3027L16.4229 13.3037ZM16.3848 14.7021C15.3977 14.6749 14.4991 15.2833 13.7793 16.2607C14.4887 17.2521 15.3897 17.8459 16.3848 17.8184C16.3975 17.818 16.4111 17.818 16.4238 17.8184C17.3981 17.8451 18.2389 17.272 19.0137 16.2695C19.0154 16.2672 19.0167 16.264 19.0186 16.2617L19.0176 16.2607C18.2233 15.2632 17.3916 14.6756 16.4238 14.7021C16.4111 14.7025 16.3975 14.7025 16.3848 14.7021Z" fill="#15C674"/>
<path d="M14.1611 10.0938C14.5475 10.094 14.8613 10.4075 14.8613 10.7939C14.8613 11.5633 14.561 12.304 14.0225 12.8516C13.4836 13.3993 12.7495 13.7088 11.9824 13.709C11.2153 13.709 10.4814 13.3991 9.94238 12.8516C9.40369 12.304 9.10254 11.5635 9.10254 10.7939C9.10254 10.4073 9.41613 10.0938 9.80273 10.0938C10.1891 10.094 10.5029 10.4075 10.5029 10.7939C10.5029 11.1994 10.6617 11.5858 10.9404 11.8691C11.2187 12.1519 11.5939 12.3096 11.9824 12.3096C12.3708 12.3094 12.7463 12.1519 13.0244 11.8691C13.3028 11.5859 13.4619 11.1992 13.4619 10.7939C13.4619 10.4075 13.7747 10.0939 14.1611 10.0938Z" fill="#15C674"/>
</svg>
