<svg xmlns="http://www.w3.org/2000/svg" width="24" height="24" fill="none"><path fill="#15c674" d="M18.698 7.799a1.5 1.5 0 0 0-1.5-1.5h-10.4a1.5 1.5 0 0 0-1.5 1.5v8.4a1.5 1.5 0 0 0 1.5 1.5h10.4a1.5 1.5 0 0 0 1.5-1.5zm-2.793 3.219c0-.524-.092-.827-.193-1.002a.74.74 0 0 0-.397-.333c-.2-.08-.464-.122-.812-.138a9 9 0 0 0-.438-.007v2.595a5 5 0 0 0 .724-.152c.358-.105.655-.245.852-.416.176-.152.264-.318.264-.547M9.461 8.035c.614 0 1.067.182 1.379.397a1.9 1.9 0 0 1 .435.42l.03.043.01.016.005.008.002.003.001.002-.444.264.444-.264a.701.701 0 0 1-1.12.828l-.08-.108.002.004.01.017-.005-.007a.5.5 0 0 0-.085-.073c-.084-.058-.261-.15-.584-.15-.29 0-.52.067-.655.176-.095.078-.25.26-.21.784.013.172.08.289.265.423.226.165.527.286.957.472.385.166.879.389 1.269.75.425.392.709.93.715 1.655.006.798-.192 1.465-.671 1.921-.472.45-1.087.569-1.636.569-.635 0-1.132-.23-1.462-.45a2.7 2.7 0 0 1-.52-.455l-.01-.012-.004-.005-.002-.003-.002-.002a.7.7 0 0 1 1.095-.873l-.001-.001.038.039c.04.038.102.093.185.148.165.111.395.213.683.213.375 0 .568-.084.671-.182.096-.092.24-.316.235-.895-.002-.319-.107-.496-.264-.64-.193-.178-.476-.32-.874-.492-.353-.152-.841-.345-1.226-.626-.425-.31-.787-.768-.838-1.451-.064-.87.196-1.544.724-1.974.488-.396 1.092-.489 1.538-.489m-.874 6.347-.002-.002-.001-.003q0 0 .003.005m8.719-3.364c0 .7-.317 1.233-.748 1.606-.411.356-.925.568-1.376.7a7 7 0 0 1-1.119.22l-.003 1.724.003.181-.01-.076a.7.7 0 1 1-1.375.262c-.008-.042-.01-.078-.011-.085l-.003-.038-.002-.065v-.174c-.002-.14-.002-.333 0-.567l.003-1.812.001-4.051a.7.7 0 0 1 .7-.701c.358 0 .802-.013 1.2.004.406.019.853.07 1.267.236a2.14 2.14 0 0 1 1.094.938c.261.457.379 1.024.379 1.698m2.793 5.18a2.9 2.9 0 0 1-2.9 2.9h-10.4a2.9 2.9 0 0 1-2.9-2.9v-8.4a2.9 2.9 0 0 1 2.9-2.9h10.4a2.9 2.9 0 0 1 2.9 2.9z"/></svg>