<svg width="24" height="24" viewBox="0 0 24 24" fill="none" xmlns="http://www.w3.org/2000/svg">
<path d="M18.3786 11.4902C18.3786 11.4596 18.3809 11.429 18.3809 11.3984C18.3809 9.33981 16.7186 7.6691 14.6689 7.6691C14.2484 7.66905 13.8312 7.74057 13.4366 7.88038C12.8818 6.46216 11.4805 5.51708 9.90713 5.5C7.80086 5.5 6.09503 7.21621 6.09503 9.33196C6.09503 9.35498 6.09503 9.37773 6.09672 9.40076C4.21126 10.1073 2.97775 11.8654 3.0003 13.814C3.0003 16.4019 5.08858 18.5 7.66503 18.5C7.71706 18.5 7.76852 18.4976 7.82026 18.4959V18.5H17.47C19.4641 18.447 21.0402 16.854 20.9992 14.9329C21.0208 13.3508 19.9517 11.9462 18.3786 11.4902Z" stroke="#333333" stroke-width="1.4" stroke-linejoin="round"/>
<circle cx="10.6548" cy="11.6777" r="2.20215" stroke="#333333" stroke-width="1.4" stroke-linejoin="round"/>
<path d="M12.6611 12.9707L15.8403 15.3013" stroke="#333333" stroke-width="1.4" stroke-linecap="round" stroke-linejoin="round"/>
<path d="M15.8301 15.3027L15.2986 15.9924" stroke="#333333" stroke-width="1.4" stroke-linecap="round" stroke-linejoin="round"/>
<path d="M14.3008 14.207L13.7411 14.954" stroke="#333333" stroke-width="1.4" stroke-linecap="round" stroke-linejoin="round"/>
<path fill-rule="evenodd" clip-rule="evenodd" d="M10.6551 8.77539C12.2578 8.77551 13.5574 10.075 13.5574 11.6777C13.5574 12.0143 13.4958 12.3361 13.3904 12.6367L16.2537 14.7363C16.5654 14.9648 16.6334 15.4031 16.4051 15.7148C16.3884 15.7376 16.3672 15.7563 16.3484 15.7764L15.8523 16.4199C15.6162 16.7258 15.1769 16.7828 14.8709 16.5469C14.5649 16.3109 14.5082 15.8716 14.7439 15.5654L14.8426 15.4365L14.4627 15.1582L14.3015 15.374C14.0698 15.6834 13.6305 15.7463 13.3211 15.5146C13.0118 15.2828 12.9487 14.8435 13.1804 14.5342L13.3328 14.3301L12.6199 13.8076C12.1027 14.2851 11.4144 14.58 10.6551 14.5801C9.05224 14.5801 7.75271 13.2805 7.75271 11.6777C7.75271 10.0749 9.05224 8.77539 10.6551 8.77539ZM10.6551 10.1758C9.82544 10.1758 9.1531 10.8481 9.1531 11.6777C9.1531 12.5073 9.82544 13.1797 10.6551 13.1797C11.4846 13.1796 12.157 12.5073 12.157 11.6777C12.157 10.8482 11.4846 10.1759 10.6551 10.1758Z" fill="#15C674"/>
<path fill-rule="evenodd" clip-rule="evenodd" d="M9.91482 4.7998C11.5438 4.81759 13.0303 5.68448 13.8133 7.05273C14.0943 6.99705 14.381 6.96872 14.6687 6.96875L14.8963 6.97461C17.0949 7.08676 18.8641 8.815 19.0613 10.9932C20.6477 11.6601 21.7125 13.188 21.699 14.918L21.698 15.1348C21.6294 17.3645 19.769 19.1395 17.4881 19.2002H7.82009C7.80895 19.2002 7.79791 19.1968 7.78689 19.1963C7.75053 19.1975 7.70635 19.2002 7.66482 19.2002C4.79143 19.2002 2.45087 16.9339 2.3074 14.0908L2.30056 13.8145C2.27934 11.7182 3.51233 9.83121 5.41287 8.93066C5.61497 6.61918 7.54566 4.79983 9.90701 4.7998H9.91482ZM9.90115 6.2002C8.18774 6.20335 6.7947 7.60123 6.7947 9.33203V9.35352L6.79373 9.46484C6.76957 9.72876 6.59688 9.96123 6.34255 10.0566C4.72091 10.6644 3.68109 12.1649 3.69998 13.8057V13.8145C3.70022 16.0185 5.47817 17.7998 7.66482 17.7998C7.7021 17.7998 7.73151 17.798 7.79763 17.7959C7.81647 17.7953 7.83559 17.7989 7.85427 17.7998H17.451C19.0846 17.7564 20.3316 16.4598 20.2996 14.9482C20.2994 14.9402 20.2985 14.9318 20.2986 14.9238C20.3157 13.672 19.4687 12.5347 18.1834 12.1621C17.8843 12.0753 17.6785 11.8017 17.6785 11.4902C17.6785 11.4602 17.68 11.4322 17.6804 11.4189V11.3984C17.6804 9.72331 16.3287 8.36918 14.6687 8.36914C14.3276 8.3691 13.9889 8.42696 13.6697 8.54004C13.3139 8.66587 12.9227 8.48713 12.7849 8.13574C12.3388 6.99531 11.2008 6.21503 9.90115 6.2002Z" fill="#15C674"/>
</svg>
