<svg width="24" height="24" viewBox="0 0 24 24" fill="none" xmlns="http://www.w3.org/2000/svg">
<path fill-rule="evenodd" clip-rule="evenodd" d="M17.585 10.5371C17.9132 10.349 18.2732 10.4051 18.5215 10.5713C18.7286 10.7102 18.8787 10.9341 18.9219 11.1934L18.9336 11.3076L18.9434 11.4219C18.9775 11.687 19.0906 11.9451 19.2822 12.2295C19.5115 12.5696 19.8114 12.8909 20.1709 13.293C20.8497 14.0521 21.702 15.0515 21.7021 16.5312C21.7021 17.7958 20.9056 18.6562 20.2402 19.1543C19.8994 19.4094 19.562 19.5935 19.3125 19.7139C19.1872 19.7743 19.0813 19.8205 19.0049 19.8516C18.967 19.867 18.9357 19.8792 18.9131 19.8877C18.9019 19.8919 18.8918 19.8949 18.8848 19.8975C18.8814 19.8987 18.8783 19.9005 18.876 19.9014L18.873 19.9023H18.8711C18.8617 19.9056 18.8512 19.9073 18.8418 19.9102C18.8209 19.9165 18.7996 19.9205 18.7783 19.9248C18.7531 19.93 18.7284 19.9352 18.7031 19.9375C18.6855 19.9391 18.668 19.9382 18.6504 19.9385C18.6228 19.9389 18.5956 19.9393 18.5684 19.9365C18.548 19.9344 18.528 19.9306 18.5078 19.9268C18.486 19.9226 18.4645 19.9183 18.4434 19.9121C18.4221 19.9059 18.4015 19.8979 18.3809 19.8896C18.3576 19.8804 18.3346 19.8711 18.3125 19.8594C18.2976 19.8515 18.2839 19.842 18.2695 19.833C18.2441 19.8171 18.2196 19.8003 18.1963 19.7812C18.1865 19.7732 18.1774 19.7645 18.168 19.7559C18.1425 19.7326 18.1187 19.7078 18.0967 19.6807C18.0938 19.6771 18.0897 19.6745 18.0869 19.6709C18.0814 19.6638 18.0774 19.6556 18.0723 19.6484C18.0549 19.6242 18.0388 19.5991 18.0244 19.5723C18.0136 19.5522 18.0048 19.5315 17.9961 19.5107C17.9909 19.4982 17.9831 19.4866 17.9785 19.4736C17.9753 19.4645 17.9745 19.4544 17.9717 19.4453C17.9647 19.4224 17.9596 19.3993 17.9551 19.376C17.9504 19.3524 17.9455 19.3292 17.9434 19.3057C17.9418 19.2884 17.9427 19.2712 17.9424 19.2539C17.9419 19.2256 17.9414 19.1978 17.9443 19.1699C17.9461 19.1528 17.9491 19.136 17.9521 19.1191C17.957 19.092 17.9627 19.0653 17.9707 19.0391C17.9754 19.0235 17.9815 19.0084 17.9873 18.9932C17.9978 18.9658 18.0087 18.9389 18.0225 18.9131C18.0305 18.898 18.0397 18.8837 18.0488 18.8691C18.0627 18.8472 18.0775 18.826 18.0938 18.8057C18.1068 18.7893 18.1211 18.7741 18.1357 18.7588C18.1547 18.739 18.174 18.7197 18.1953 18.7021C18.2005 18.6979 18.2056 18.6926 18.2109 18.6885C18.2119 18.6877 18.2137 18.6866 18.2148 18.6855C18.2247 18.677 18.2418 18.6608 18.2637 18.6396C18.3087 18.596 18.3708 18.5299 18.4316 18.4473C18.5585 18.2749 18.6503 18.0746 18.6504 17.8652C18.6503 17.6381 18.5316 17.4313 18.2051 17.0078C18.0155 16.7619 17.7531 16.4366 17.5547 16.0264C17.075 16.4591 16.7462 16.9571 16.7461 17.5898C16.7462 17.9083 16.9089 18.3054 17.3057 18.8076C17.308 18.8106 17.3092 18.8144 17.3115 18.8174C17.3214 18.8303 17.329 18.8448 17.3379 18.8584C17.3541 18.883 17.371 18.9067 17.3838 18.9326C17.3866 18.9382 17.388 18.9445 17.3906 18.9502C17.4458 19.0701 17.4657 19.2003 17.4502 19.3271C17.4484 19.3417 17.4432 19.3556 17.4404 19.3701C17.4346 19.4011 17.4289 19.4319 17.4189 19.4619C17.4181 19.4644 17.4188 19.4673 17.418 19.4697C17.414 19.4813 17.4069 19.4917 17.4023 19.5029C17.3908 19.5316 17.3787 19.5598 17.3633 19.5869C17.3516 19.6076 17.3377 19.6264 17.3242 19.6455C17.3111 19.664 17.2983 19.6828 17.2832 19.7002C17.2689 19.7166 17.252 19.7302 17.2363 19.7451C17.2208 19.7599 17.2076 19.7774 17.1904 19.791C17.1876 19.7932 17.1835 19.7947 17.1807 19.7969C17.1611 19.8119 17.1392 19.8231 17.1182 19.8359C17.1004 19.8468 17.0838 19.859 17.0654 19.8682C17.0499 19.8758 17.0336 19.8812 17.0176 19.8877C16.9481 19.9159 16.8767 19.9345 16.8037 19.9395C16.7982 19.9398 16.7926 19.9392 16.7871 19.9395C16.7482 19.9412 16.7094 19.9412 16.6709 19.9365C16.6531 19.9343 16.636 19.9284 16.6182 19.9248C16.5902 19.9192 16.5623 19.9143 16.5352 19.9053C16.533 19.9046 16.5305 19.905 16.5283 19.9043C14.901 19.3451 13.6935 17.9363 13.6934 16.1445C13.6934 14.924 14.337 13.7229 15.084 12.7725C15.841 11.8095 16.7922 10.9917 17.585 10.5371ZM17.6855 12.1543C17.1901 12.5326 16.6478 13.0484 16.1846 13.6377C15.5146 14.4901 15.0938 15.3853 15.0938 16.1445C15.0938 16.5399 15.1891 16.9139 15.3643 17.25C15.5105 15.8687 16.527 14.9992 17.2598 14.4775L17.377 14.4062C17.6542 14.266 17.9559 14.2949 18.1807 14.4043C18.4298 14.5258 18.6356 14.7654 18.6953 15.0752C18.7654 15.4397 18.9824 15.7225 19.3145 16.1533C19.5472 16.4552 19.8781 16.8783 20.001 17.4297C20.1862 17.1645 20.3017 16.8668 20.3018 16.5312C20.3016 15.6335 19.8112 14.9908 19.127 14.2256C18.8051 13.8656 18.4184 13.4527 18.1211 13.0117C17.9475 12.7542 17.7931 12.4696 17.6855 12.1543Z" fill="#15C674"/>
<path d="M16.3203 4.47949C18.0874 4.47976 19.5205 5.91254 19.5205 7.67969V7.99219C19.5205 8.37862 19.2067 8.69212 18.8203 8.69238C18.4337 8.69238 18.1201 8.37879 18.1201 7.99219V7.67969C18.1201 6.68574 17.3142 5.88015 16.3203 5.87988H7.68066C6.68655 5.87988 5.88086 6.68558 5.88086 7.67969V16.3193C5.88086 17.3134 6.68655 18.1191 7.68066 18.1191H12.001C12.3871 18.1197 12.7002 18.4331 12.7002 18.8193C12.7002 19.2056 12.3871 19.519 12.001 19.5195H7.68066C5.91335 19.5195 4.47949 18.0866 4.47949 16.3193V7.67969C4.47949 5.91238 5.91335 4.47949 7.68066 4.47949H16.3203Z" fill="#15C674"/>
<path d="M14.1191 9.21289C14.3835 8.93091 14.8264 8.91641 15.1084 9.18066C15.3903 9.44503 15.4049 9.88789 15.1406 10.1699L11.3906 14.1699C11.1312 14.4463 10.6985 14.4665 10.415 14.2148L8.16504 12.2148C7.87628 11.9582 7.85013 11.5155 8.10645 11.2266C8.36322 10.9377 8.80577 10.9114 9.09473 11.168L10.835 12.7148L14.1191 9.21289Z" fill="#15C674"/>
</svg>
