<svg width="24" height="24" viewBox="0 0 24 24" fill="none" xmlns="http://www.w3.org/2000/svg">
<path fill-rule="evenodd" clip-rule="evenodd" d="M16.9635 7.55176C17.9945 7.04863 19.2299 7.60179 19.5407 8.70605C19.762 9.49327 19.4372 10.3493 18.7077 10.7676C18.2385 11.0365 17.6065 11.3832 17.1071 11.5947C16.5983 11.8103 15.9368 12.1276 15.4391 12.3721C15.3249 12.4282 15.2592 12.5584 15.2887 12.6934L16.5778 18.585C16.8152 19.6717 15.9871 20.7 14.8747 20.7002C14.124 20.7001 13.4572 20.2192 13.2204 19.5068L12.2047 16.4482C12.1732 16.3533 12.094 16.2853 11.9997 16.2627C11.9056 16.2855 11.827 16.3535 11.7956 16.4482L10.7799 19.5068C10.5432 20.2192 9.87634 20.7001 9.12565 20.7002C8.01305 20.7002 7.18508 19.6718 7.42252 18.585L8.71158 12.6934C8.74109 12.5585 8.6753 12.4282 8.56119 12.3721C8.06359 12.1276 7.40207 11.8103 6.89323 11.5947C6.39386 11.3832 5.76182 11.0366 5.29264 10.7676C4.56303 10.3493 4.23827 9.49333 4.45963 8.70605C4.77047 7.60174 6.00582 7.04852 7.03678 7.55176L7.75846 7.9043C8.9629 8.49219 10.2162 8.90606 11.4948 8.99805C11.6842 9.01167 11.8558 9.01927 11.9997 9.02148C12.1437 9.01929 12.3158 9.01169 12.5055 8.99805C13.7841 8.90602 15.0375 8.4922 16.2419 7.9043L16.9635 7.55176ZM18.193 9.08496C18.1188 8.82153 17.8238 8.68959 17.5778 8.80957L16.8561 9.16211C15.5475 9.80086 14.1167 10.2858 12.6061 10.3945C12.4197 10.4079 12.2353 10.4154 12.0661 10.4189V10.4229C12.0443 10.4229 12.0221 10.4212 11.9997 10.4209C11.9775 10.4211 11.9557 10.4229 11.9342 10.4229V10.4189C11.7649 10.4154 11.5807 10.4079 11.3942 10.3945C9.88353 10.2859 8.45283 9.80086 7.1442 9.16211L6.42252 8.80957C6.17649 8.68948 5.88156 8.82148 5.80729 9.08496C5.75337 9.27696 5.83599 9.46603 5.98893 9.55371C6.45486 9.82082 7.02382 10.1298 7.43912 10.3057C7.98645 10.5375 8.67782 10.8693 9.17838 11.1152C9.88046 11.4603 10.2446 12.2385 10.0797 12.9922L8.79069 18.8838C8.74408 19.0976 8.90673 19.3008 9.12565 19.3008C9.2732 19.3006 9.40419 19.2054 9.45084 19.0654L10.4674 16.0068C10.6823 15.36 11.2632 14.9089 11.9342 14.8564V14.8525C11.9561 14.8525 11.9779 14.8536 11.9997 14.8545C12.0217 14.8536 12.0439 14.8525 12.0661 14.8525V14.8564C12.737 14.909 13.318 15.3601 13.5329 16.0068L14.5495 19.0654C14.5962 19.2054 14.7271 19.3007 14.8747 19.3008C15.0934 19.3006 15.2562 19.0975 15.2096 18.8838L13.9206 12.9922C13.7557 12.2385 14.1197 11.4602 14.8219 11.1152C15.3225 10.8693 16.0139 10.5375 16.5612 10.3057C16.9765 10.1297 17.5455 9.82081 18.0114 9.55371C18.1642 9.46602 18.2469 9.27688 18.193 9.08496Z" fill="#15C674"/>
<path fill-rule="evenodd" clip-rule="evenodd" d="M11.9997 3.64062C13.2146 3.64062 14.1997 4.62591 14.1999 5.84082C14.1999 7.05585 13.2147 8.04102 11.9997 8.04102C10.7847 8.04092 9.79948 7.05579 9.79948 5.84082C9.79961 4.62596 10.7848 3.64072 11.9997 3.64062ZM11.9997 5.04102C11.558 5.04111 11.2 5.39916 11.1999 5.84082C11.1999 6.28259 11.5579 6.64053 11.9997 6.64062C12.4415 6.64062 12.7995 6.28265 12.7995 5.84082C12.7993 5.3991 12.4414 5.04102 11.9997 5.04102Z" fill="#15C674"/>
</svg>
