<svg width="24" height="24" viewBox="0 0 24 24" fill="none" xmlns="http://www.w3.org/2000/svg">
<path d="M18.29 18.2148C18.6764 18.2151 18.9902 18.5286 18.9902 18.915C18.9902 19.3015 18.6764 19.615 18.29 19.6152H15.0938C14.7072 19.6152 14.3936 19.3016 14.3936 18.915C14.3936 18.5284 14.7072 18.2148 15.0938 18.2148H18.29Z" fill="#15C674"/>
<path fill-rule="evenodd" clip-rule="evenodd" d="M15.9062 4.44336C16.3772 4.44349 16.828 4.63911 17.1494 4.9834L18.7637 6.71289C19.0573 7.02763 19.2207 7.44262 19.2207 7.87305V10.8828C19.2207 11.2692 18.9069 11.5827 18.5205 11.583C18.1339 11.583 17.8203 11.2694 17.8203 10.8828V8.28711H6.14453V17.1387C6.14453 17.307 6.21416 17.4768 6.35156 17.6074C6.49031 17.7391 6.68661 17.8193 6.89746 17.8193H12.3525C12.7387 17.8199 13.0518 18.1333 13.0518 18.5195C13.0515 18.9056 12.7386 19.2182 12.3525 19.2188H6.89746C6.33788 19.2188 5.79385 19.0077 5.3877 18.6221C4.98045 18.2351 4.74316 17.7022 4.74316 17.1387V7.87305C4.74318 7.44251 4.90744 7.02766 5.20117 6.71289L6.81543 4.9834C7.13692 4.63912 7.58753 4.44336 8.05859 4.44336H15.9062ZM8.05859 5.84375C7.97561 5.84375 7.89558 5.87793 7.83887 5.93848L6.9541 6.88672H17.0107L16.126 5.93848C16.0694 5.87792 15.9891 5.84388 15.9062 5.84375H8.05859Z" fill="#15C674"/>
<path d="M19.874 15.5967C20.2603 15.5971 20.5742 15.9105 20.5742 16.2969C20.5742 16.6832 20.2603 16.9967 19.874 16.9971H15.0938C14.7072 16.9971 14.3936 16.6835 14.3936 16.2969C14.3936 15.9103 14.7072 15.5967 15.0938 15.5967H19.874Z" fill="#15C674"/>
<path d="M19.874 12.9785C20.2603 12.9789 20.5742 13.2924 20.5742 13.6787C20.5742 14.0651 20.2603 14.3785 19.874 14.3789H15.0938C14.7072 14.3789 14.3936 14.0653 14.3936 13.6787C14.3936 13.2921 14.7072 12.9785 15.0938 12.9785H19.874Z" fill="#15C674"/>
<path d="M14.1611 10.0938C14.5475 10.094 14.8613 10.4075 14.8613 10.7939C14.8613 11.5633 14.561 12.304 14.0225 12.8516C13.4836 13.3993 12.7495 13.7088 11.9824 13.709C11.2153 13.709 10.4814 13.3991 9.94238 12.8516C9.40369 12.304 9.10254 11.5635 9.10254 10.7939C9.10254 10.4073 9.41613 10.0938 9.80273 10.0938C10.1891 10.094 10.5029 10.4075 10.5029 10.7939C10.5029 11.1994 10.6617 11.5858 10.9404 11.8691C11.2187 12.1519 11.5939 12.3096 11.9824 12.3096C12.3708 12.3094 12.7463 12.1519 13.0244 11.8691C13.3028 11.5859 13.4619 11.1992 13.4619 10.7939C13.4619 10.4075 13.7747 10.0939 14.1611 10.0938Z" fill="#15C674"/>
</svg>
