<svg width="18" height="18" viewBox="0 0 17.43 17.43" fill="none" xmlns="http://www.w3.org/2000/svg">
	<path d="M9.81282 7.30436C11.6443 7.30728 13.1286 8.76505 13.1638 10.5955L13.1463 11.6843L14.2361 11.692C14.6366 11.6953 14.9563 12.023 14.9501 12.4236L14.9036 15.3285C14.8977 15.6791 14.6439 15.9698 14.3121 16.0352L14.1664 16.0488L14.1432 17.5008L11.9645 17.4854L11.9877 16.0335L5.45178 15.9873L5.42853 17.4393L3.24988 17.4239L3.27312 15.9719L3.12687 15.9563C2.79708 15.8863 2.5528 15.592 2.55819 15.2413L2.60469 12.3364C2.61128 11.9356 2.94193 11.6123 3.34286 11.6151L4.43268 11.6228L4.45011 10.534C4.54387 8.70425 6.07523 7.26762 7.90662 7.29091L9.81282 7.30436ZM11.4473 4.39993L17.62 4.4435L17.4283 16.4234L16.3394 16.4157L16.5136 5.53626L11.4297 5.50037L11.4123 6.5891L10.3235 6.58142L10.4106 1.13583L4.96448 1.09739L4.85011 7.63164L1.22814 7.60607L1.08884 16.3081L-2.99941e-06 16.3004L0.156911 6.49794L3.79549 6.52362L3.89211 -8.83745e-06L11.5169 0.053807L11.4473 4.39993ZM6.3892 14.1668C6.18871 14.1654 6.02339 14.327 6.02012 14.5275L6.01993 14.5392L3.29636 14.52L3.28492 15.2347L14.1772 15.3116L14.1887 14.5969L11.4661 14.5776L11.4663 14.5659C11.4694 14.3655 11.3093 14.2015 11.1088 14.2001L6.3892 14.1668ZM4.57894 12.4304C4.12778 12.4272 3.75578 12.7899 3.74852 13.241C3.74129 13.6921 4.1016 14.0608 4.5528 14.064C5.00391 14.0671 5.37504 13.7036 5.38226 13.2525C5.38944 12.8014 5.03003 12.4337 4.57894 12.4304ZM12.9518 12.4886C12.5008 12.4856 12.1295 12.8491 12.1223 13.3001C12.1151 13.7512 12.4754 14.1199 12.9266 14.1231C13.3776 14.126 13.7488 13.7626 13.7561 13.3116C13.7633 12.8605 13.403 12.4917 12.9518 12.4886ZM8.84132 8.38636C5.57382 8.36336 5.54808 9.9714 5.52152 11.6305L12.0575 11.6766C12.0841 10.0157 12.109 8.40942 8.84132 8.38636ZM3.37209 9.78914L2.28228 9.78145L2.29972 8.69174L3.38954 8.69944L3.37209 9.78914ZM15.3542 9.87371L14.2654 9.86603L14.2828 8.77632L15.3717 8.78401L15.3542 9.87371ZM15.3891 7.69528L14.3002 7.68759L14.3177 6.59789L15.4065 6.60557L15.3891 7.69528ZM9.25107 5.485L8.16223 5.47731L8.17968 4.38761L9.26852 4.39529L9.25107 5.485ZM7.07243 5.46864L5.98359 5.46096L6.00102 4.37223L7.08986 4.37992L7.07243 5.46864ZM7.12473 2.20148L7.1073 3.29021L6.01846 3.28253L6.03608 2.18208L7.12473 2.20148ZM9.28596 3.30559L8.19712 3.2979L8.21455 2.20918L9.30339 2.21686L9.28596 3.30559Z" fill="#A8ADB4"/>
</svg>