<svg width="18" height="18" viewBox="0 0 17.44 17.4" fill="none" xmlns="http://www.w3.org/2000/svg">
	<path d="M3.98745 0.000143873C5.78644 -0.0169346 7.22813 1.38406 7.38686 1.54462L7.38974 1.54757L7.47251 1.62433C7.97301 1.50081 8.51403 1.43054 9.10068 1.43465C9.55376 1.43785 9.97494 1.48486 10.3673 1.56566C10.5307 1.40811 12.0171 0.0277873 13.8153 0.0704854C14.7279 0.092276 15.5614 0.482687 16.2262 1.19979C18.1222 3.24621 16.6823 5.96141 15.623 7.15638C16.3319 7.83798 17.9747 9.73096 17.2666 12.1015C16.2291 15.5746 13.1573 15.6713 12.9395 15.6734L12.3858 15.6695C11.3555 16.9765 9.71946 17.4349 8.62201 17.4271C7.42684 17.4186 5.81851 16.8535 4.89187 15.6166L4.33915 15.6127C4.13136 15.6075 1.06408 15.467 0.138127 11.9806C-0.495589 9.59608 1.21556 7.72327 1.94667 7.05204C0.926982 5.83801 -0.415637 3.11062 1.54098 1.09614C2.22879 0.387999 3.07488 0.00913397 3.98745 0.000143873ZM9.08324 2.52435C4.88359 2.4949 3.35141 6.93402 3.2884 7.12401L3.17966 7.45038L2.90383 7.65937C2.80939 7.73171 0.596772 9.4576 1.19069 11.6921C1.90474 14.381 4.12496 14.5172 4.37708 14.5242L5.35362 14.5311C5.65469 14.5332 5.89463 14.7783 5.88981 15.0797C5.88961 15.0868 5.88799 15.0938 5.88751 15.1012C6.66616 16.0091 7.90665 16.3322 8.63945 16.3374C9.38863 16.3427 10.6557 16.0257 11.4586 15.0829C11.482 14.7992 11.7201 14.5761 12.0087 14.578L12.9569 14.5847C13.1989 14.5812 15.4226 14.4762 16.2225 11.7982C16.888 9.57085 14.7272 7.81325 14.635 7.73924L14.3332 7.49883L14.2495 7.11543C14.2085 6.9268 13.2112 2.55354 9.08324 2.52435ZM9.71128 11.2455C9.729 11.2457 10.3095 11.2586 10.3004 11.8414C10.2928 12.3207 9.62752 13.053 9.05606 13.3131L9.04326 14.1128C9.04326 14.1128 9.03744 14.271 9.13961 14.3781C9.19067 14.4319 9.27043 14.4727 9.39201 14.4736C9.76281 14.4762 9.78445 14.1181 9.78451 14.1141L10.5096 14.1524L10.5095 14.1553C10.4784 14.6657 10.0722 15.205 9.38038 15.2001C9.10046 15.1981 8.8482 15.0979 8.65821 14.9216C8.46233 15.0949 8.20758 15.1917 7.92826 15.1898C7.23645 15.185 6.84794 14.6401 6.83284 14.1294L6.83288 14.1265L7.55898 14.0984C7.55892 14.1024 7.56946 14.4608 7.93989 14.4634C8.06145 14.4641 8.14218 14.4246 8.19529 14.3714C8.30087 14.2658 8.30011 14.1075 8.30011 14.1075L8.31282 13.3137C7.74752 13.05 7.09748 12.3007 7.1052 11.8188C7.11489 11.2321 7.70315 11.2313 7.71329 11.2313L9.71128 11.2455ZM5.49028 7.94618C5.89136 7.9494 6.20802 8.4405 6.19839 9.04198C6.18861 9.64252 5.85638 10.128 5.4554 10.1256C5.05455 10.1228 4.73683 9.63251 4.74628 9.03173C4.75591 8.43001 5.08934 7.94335 5.49028 7.94618ZM12.0272 7.99329C12.4285 7.99612 12.7459 8.48641 12.7363 9.08812C12.7266 9.68894 12.3936 10.1746 11.9923 10.1717C11.5916 10.1687 11.2747 9.67854 11.2842 9.07787C11.2938 8.47631 11.6264 7.9907 12.0272 7.99329ZM3.98856 1.08998C3.43615 1.09525 2.85767 1.29735 2.319 1.85162C0.89947 3.31349 2.01244 5.27263 2.56039 6.0515C3.06235 4.98408 4.22097 3.03126 6.29969 2.0428C5.84785 1.67788 4.95915 1.08049 3.98856 1.08998ZM13.7784 1.15908C12.9062 1.13867 12.0828 1.61028 11.5895 1.96588C13.6854 2.9282 14.6762 4.96588 15.0813 6.09495C15.6643 5.29645 16.7714 3.39834 15.4232 1.94411C14.903 1.38242 14.3305 1.17169 13.7784 1.15908Z" fill="#A8ADB4"/>
</svg>