<svg width="16" height="18" viewBox="0 0 15.7 17.49" fill="none" xmlns="http://www.w3.org/2000/svg">
	<path d="M12.3815 13.6325L9.71687 17.4388L8.39311 17.4637L11.3827 13.4966L14.1266 9.80504L15.4117 9.81411L12.3815 13.6325ZM2.94941 9.70662C3.99075 9.71397 4.8348 10.4102 4.81841 11.4337C4.80359 12.3546 4.08389 12.8746 3.25996 13.3074L4.7868 15.117C5.06093 14.548 5.19441 13.9225 5.17637 13.2936L5.18089 13.0114L6.13204 13.0181L6.127 13.3325C6.15989 14.2119 5.94023 15.0847 5.49392 15.8475L6.90221 17.375L5.55849 17.3655L4.84595 16.547C4.22298 17.0918 3.42563 17.3953 2.60162 17.4003C1.20271 17.3904 0.153156 16.5466 0.173874 15.2524C0.189312 14.2892 0.788342 13.7022 1.60643 13.2508C1.69801 13.197 1.79494 13.1484 1.89695 13.1005C1.4245 12.5827 1.01589 12.0707 1.02664 11.3991C1.04183 10.4641 1.84411 9.69896 2.94941 9.70662ZM14.0311 13.6305C14.9821 13.6372 15.53 14.4441 15.5136 15.4661L15.5112 15.6184C15.4953 16.6078 14.9314 17.4454 13.9594 17.4385C13.0037 17.4315 12.4725 16.6137 12.4889 15.5864L12.4914 15.435C12.5074 14.4341 13.0803 13.6239 14.0311 13.6305ZM14.0235 14.4712C13.5694 14.468 13.3399 14.9021 13.3304 15.4927L13.3297 15.5366C13.3196 16.1661 13.5541 16.589 13.9847 16.592C14.4055 16.5949 14.6631 16.1853 14.6732 15.5559L14.6739 15.5119C14.6838 14.8874 14.459 14.4745 14.0235 14.4712ZM2.19929 13.8585C1.61744 14.1684 1.21608 14.551 1.2064 15.1786C1.19276 16.0396 1.87931 16.3767 2.66968 16.3823C3.24472 16.4119 3.80984 16.2071 4.23554 15.8152L2.43069 13.741C2.35028 13.7781 2.27472 13.8158 2.19929 13.8585ZM9.73498 9.77893C10.6859 9.78564 11.2338 10.5926 11.2174 11.6146L11.215 11.7659C11.1992 12.7551 10.636 13.5926 9.66427 13.586C8.70827 13.5792 8.17638 12.7613 8.19281 11.7338L8.19522 11.5835C8.21125 10.5827 8.78427 9.77242 9.73498 9.77893ZM3.41703 10.6337C3.12604 10.4569 2.75945 10.4555 2.46388 10.6299C2.16846 10.8044 1.99206 11.1271 2.00413 11.4685C1.99828 11.8424 2.17464 12.1569 2.72541 12.7177C3.37653 12.392 3.84621 12.0712 3.85574 11.4757C3.87674 11.1343 3.70803 10.8106 3.41703 10.6337ZM9.72732 10.6236C9.27527 10.6204 9.04655 11.0534 9.03714 11.6412L9.03646 11.6841C9.02646 12.3103 9.26029 12.7315 9.68864 12.7346C10.1079 12.7376 10.364 12.3297 10.3742 11.7033L10.3749 11.6594C10.3847 11.038 10.1604 10.6267 9.72732 10.6236ZM11.7042 4.03952e-06C13.4385 0.0123896 15.2969 1.10168 15.2026 3.71995C15.1595 4.89245 13.8097 6.1095 13.8097 6.1095C13.3496 5.65565 14.4909 4.93756 14.4254 3.7672C14.3414 2.26538 12.7728 1.45186 12.7728 1.45186L12.6977 6.14364C12.6602 8.4888 9.35966 9.05287 8.94085 7.8339C8.7018 7.13761 8.70979 6.24107 9.85238 5.61771C10.5693 5.228 11.589 5.48446 11.589 5.48446L11.7032 -2.85288e-06L11.7042 4.03952e-06ZM4.28763 8.2903L3.19879 8.28262L3.2685 3.92771L4.35735 3.93442L4.28763 8.2903ZM7.62485 3.95748L4.35735 3.93442L4.36607 3.38957L3.27723 3.38188L3.2685 3.92771L8.22187e-06 3.90562L0.017483 2.81396L7.64229 2.86778L7.62485 3.95748ZM7.6607 1.77905L0.0349109 1.72523L0.0523544 0.635528L7.67814 0.689351L7.6607 1.77905Z" fill="#A8ADB4"/>
</svg>