<svg width="18" height="18" viewBox="0 0 17.4 17.41" fill="none" xmlns="http://www.w3.org/2000/svg">
	<path fill-rule="evenodd" clip-rule="evenodd" d="M16.7071 10.8397C16.7207 11.0333 16.0959 11.2518 16.0959 11.2518L17.2693 11.946C17.2693 11.946 17.0987 12.1474 16.7584 12.3291C17.1782 12.669 17.2368 13.0434 17.2306 13.4366C17.2228 13.9205 17.0298 14.3393 16.3968 14.7277C16.7038 15.0134 16.9939 16.0612 16.9887 16.3843C16.9799 16.9369 15.3977 17.4576 15.0354 17.4551C14.6719 17.4525 11.7544 17.4359 9.77083 17.4219C8.88888 17.4157 8.0497 17.4145 7.27313 17.4043L1.17853 17.3449L0.000181313 3.91443L6.38188 3.95947L7.32838 0.387125L7.33019 0.387138C7.39078 0.163536 7.5946 -0.00168601 7.83606 1.8181e-05C7.8829 0.00034877 7.92742 0.00937729 7.97008 0.0209344L7.9712 0.0191268L8.03511 0.0417267C8.0362 0.0420974 8.03656 0.0421 8.03728 0.0428312L11.5425 1.27196L11.1928 2.24803L8.18265 1.19196L7.44719 3.96699L9.07784 3.9785L8.70286 7.28184C9.12585 7.26304 9.55957 7.25412 10.0036 7.25725C13.9058 7.28479 17.07 8.13171 17.0388 10.078C17.033 10.4411 16.8375 10.4528 16.6281 10.7806C16.6547 10.7986 16.7051 10.8059 16.7071 10.8397ZM4.32638 16.0094C4.68837 16.3758 5.54107 16.3037 5.54107 16.3037L9.59172 16.3323L14.6754 16.3682C14.6754 16.3682 15.1046 16.368 15.4402 16.0436C15.9216 15.5782 15.3501 14.9112 14.7608 14.907C13.6008 14.8988 6.27555 14.8377 4.93175 14.8282C4.3301 14.8239 3.9644 15.6423 4.32638 16.0094ZM9.92646 14.1103L16.3986 12.0232L3.78514 11.9342L9.92646 14.1103ZM1.12365 5.01166L2.06392 16.279L2.72366 16.2836C2.72012 15.9604 3.12082 14.9517 3.43617 14.6703C2.81575 14.2735 2.5291 13.9192 2.53685 13.4349C2.5435 13.0196 2.6647 12.4576 3.14089 12.1099C2.55845 11.9043 2.46775 11.4908 2.84532 11.3827C3.26377 11.2618 3.30604 11.5475 3.5584 11.2312C3.0842 10.7511 2.81547 10.5481 2.8246 9.97774C2.84928 8.43621 4.89378 7.61552 7.67957 7.35342L7.97084 5.05999L1.12365 5.01166ZM9.98624 8.31229C7.88357 8.29744 3.83638 8.73328 3.89229 10.0041C3.90938 10.3884 5.3214 10.8552 5.3214 10.8552L9.96788 10.888L14.5802 10.9205C14.5802 10.9205 15.9901 10.4319 16.0054 10.0896C16.0631 8.81849 12.0225 8.32666 9.98624 8.31229ZM1.35958e-05 3.91448C-0.000474579 3.94498 0.011588 4.07614 1.35958e-05 3.91448V3.91448Z" fill="#A8ADB4"/>
</svg>