<svg width="18" height="18" viewBox="0 0 17.43 17.43" fill="none" xmlns="http://www.w3.org/2000/svg">
	<path d="M8.85524 0.000228445C13.6677 0.0342898 17.5062 3.96348 17.4294 8.77546C17.3523 13.5875 13.3889 17.4606 8.57629 17.4267C3.76388 17.3925 -0.0757756 13.4644 0.00113169 8.65245C0.0783779 3.84058 4.04289 -0.0334659 8.85524 0.000228445ZM8.84854 1.09001C4.63797 1.0608 1.1693 4.45002 1.10169 8.66022C1.0344 12.8705 4.39383 16.3078 8.60446 16.3381C12.8155 16.3678 16.2848 12.9785 16.3523 8.76785C16.4195 4.55734 13.0595 1.11973 8.84854 1.09001ZM8.69338 10.539C11.7007 10.5601 14.1596 9.29218 14.1491 9.97787C14.1009 12.9853 11.6235 15.406 8.61581 15.385C5.60801 15.3637 3.20775 12.9085 3.25585 9.90099C3.26731 9.21529 5.68594 10.5177 8.69338 10.539ZM13.0365 11.0266C13.0439 10.5484 11.3172 11.5594 8.67051 11.5407C6.0238 11.5221 4.32985 10.4869 4.32192 10.9651C4.28855 13.0498 7.45484 13.1659 8.64436 13.1743C9.97981 13.1837 13.0032 13.1109 13.0365 11.0266ZM6.31501 5.42851C6.76519 5.43168 7.12253 5.92211 7.11297 6.52397C7.10329 7.12585 6.73216 7.61013 6.28014 7.60694C5.8283 7.60347 5.47257 7.11417 5.48216 6.51245C5.49187 5.91078 5.865 5.42561 6.31501 5.42851ZM11.7631 5.46793C12.2144 5.47112 12.5726 5.96095 12.563 6.56243C12.5534 7.16401 12.1796 7.64858 11.7282 7.64539C11.2771 7.64189 10.9197 7.15229 10.9293 6.5509C10.939 5.94961 11.312 5.46507 11.7631 5.46793Z" fill="#A8ADB4"/>
</svg>