<svg width="13" height="17" viewBox="0 0 13 17" fill="none" xmlns="http://www.w3.org/2000/svg">
	<path d="M0.541677 16.0153C0.241684 16.0132 -0.00206616 15.7709 9.40051e-06 15.4768L0.101557 1.09109C0.10269 0.930682 0.176421 0.788614 0.295355 0.682513C0.377674 0.6118 1.2003 -0.0151276 3.38207 0.000271251C4.50022 0.00816317 5.40715 0.317564 6.27772 0.626707C7.11211 0.90886 7.89202 1.18172 8.82836 1.18833C10.5829 1.20071 11.2133 0.759572 11.2133 0.75066C11.3778 0.627057 11.6053 0.601927 11.7956 0.692387C11.9768 0.782784 12.1028 0.961908 12.1013 1.16687L12.0528 8.03748C12.0518 8.18897 11.978 8.33995 11.859 8.44605C11.7767 8.51676 10.9541 9.14369 8.77232 9.12829C7.66326 9.12047 6.74724 8.811 5.87661 8.51077C5.04221 8.22862 4.2623 7.95576 3.32596 7.94915C2.1169 7.94062 1.44268 8.14974 1.14175 8.28129L1.09089 15.4845C1.08882 15.7786 0.841669 16.0174 0.541677 16.0153ZM3.33351 6.87979C4.45166 6.88769 5.35859 7.19709 6.22916 7.50623C7.06355 7.78838 7.84347 8.06124 8.77981 8.06785C9.98887 8.07638 10.6631 7.86726 10.964 7.73571L11.0045 2.00574C10.5125 2.15377 9.81164 2.27359 8.82075 2.26659C7.71169 2.25877 6.79567 1.9493 5.9251 1.64016C5.09071 1.358 4.3108 1.08515 3.37445 1.07854C2.16539 1.07001 1.49117 1.27913 1.19024 1.41068L1.14973 7.14956C1.63261 7.00147 2.34256 6.88171 3.33345 6.88871L3.33351 6.87979Z" fill="#A8ADB4"/>
</svg>
