<svg width="18" height="18" viewBox="0 0 17.37 17.37" fill="none" xmlns="http://www.w3.org/2000/svg">
	<path d="M8.82747 0.000218563C13.6251 0.0340799 17.4523 3.95086 17.3757 8.74792C17.2988 13.545 13.347 17.4059 8.54939 17.372C3.7522 17.3377 -0.0755529 13.4221 0.00113446 8.62529C0.0780652 3.82854 4.03029 -0.0331389 8.82747 0.000218563ZM9.87178 1.08082C9.52567 1.03046 9.17157 1.00166 8.81148 0.999114C7.18284 0.987791 5.66475 1.48487 4.40779 2.34008L4.67415 3.27164L4.19565 3.26826L4.03441 3.51809L3.80675 2.79189C2.71924 3.69616 1.8811 4.89157 1.41414 6.25835L2.60421 5.73843L2.39486 6.06508L2.69653 6.49982L1.1642 7.16868C1.06512 7.64218 1.00817 8.13149 1.00013 8.63234C0.97667 10.1004 1.36659 11.4758 2.06193 12.6476L2.69243 12.5515L3.20245 13.1488L2.46815 13.2618C3.0952 14.1175 3.89869 14.8353 4.82433 15.3663L4.83604 15.0617L5.21568 15.5057L5.4979 15.5077L5.48889 15.7049C6.42716 16.1265 7.46723 16.3662 8.56536 16.3741C8.81786 16.3759 9.06834 16.3634 9.31497 16.3413L7.1961 15.5197L7.46367 15.5216L7.47427 14.8596L10.6247 16.0361L10.6397 16.1934C11.6918 15.9115 12.6747 15.412 13.5248 14.7275L13.4178 14.6994C14.9674 13.4746 16.0399 11.6747 16.307 9.61927L16.3752 9.75061C16.4852 9.01551 16.4895 8.26908 16.3862 7.5349L16.3218 7.53445L16.307 7.60465C16.0987 6.02581 15.4112 4.59948 14.3904 3.47986L14.8125 3.2846C13.5122 1.88788 11.7726 0.977677 9.87783 0.702934L9.87178 1.08082ZM12.0748 15.5571C11.6488 15.7703 11.2009 15.9454 10.7353 16.0779L10.6247 16.0361L10.6172 15.955L12.0987 14.9225L12.0748 15.5571ZM7.15819 12.7021L6.60562 12.9941L6.8592 13.1375L6.8514 13.6247L7.49951 13.2826L7.47427 14.8596L6.83448 14.6207L6.82964 14.9234L5.63728 14.915L7.1961 15.5197L5.4979 15.5077L5.55963 14.1527L5.31305 14.2428L4.8832 13.9458L4.83604 15.0617L3.20245 13.1488L3.8349 13.0527L2.7355 12.5459L2.69243 12.5515L2.64067 12.4905L3.84121 11.3164L3.83266 12.0947L4.26822 11.669L4.51503 11.8085L4.52176 11.205L7.15819 12.7021ZM13.4178 14.6994C13.2267 14.8504 13.0299 14.9949 12.8249 15.1278L12.8343 14.5459L13.4178 14.6994ZM12.8343 14.5459L12.6932 14.5097L12.0987 14.9225L12.1836 12.7307L12.5379 12.867L12.8719 12.3782L12.8343 14.5459ZM9.71901 11.7837L10.0821 11.923L7.49951 13.2826L7.50564 12.8999L7.15819 12.7021L9.72599 11.3482L9.71901 11.7837ZM14.3217 9.05448L13.6734 9.22276L14.0408 9.82202L14.7015 9.67434L14.7138 9.69396L12.8719 12.3782L12.8896 11.392L12.3246 12.2181L12.2062 12.1713L12.1836 12.7307L10.0821 11.923L10.7016 11.5973L10.0774 11.3575L10.0806 11.1622L9.72599 11.3482L9.77025 8.58291L9.85057 8.62938L9.94198 8.47085L10.0064 8.4713L10.0225 8.50364L10.0865 8.47187L10.1226 8.47212L10.1229 8.45357L10.5472 8.2427L10.1863 8.03508L12.2824 6.98348L12.2732 7.56056L12.6177 7.38819L12.9432 7.92466L12.9616 6.83301L14.3217 9.05448ZM4.11132 8.53614L4.55435 8.25411L4.52176 11.205L4.16365 11.0023L3.84121 11.3164L3.87743 8.19953L4.11132 8.53614ZM16.0076 9.04002L16.1668 9.34778L14.7015 9.67434L14.3217 9.05448L16.0997 8.59536L16.0076 9.04002ZM16.307 9.61927L16.1668 9.34778L16.3442 9.30899C16.3349 9.41312 16.3203 9.51637 16.307 9.61927ZM10.1863 8.03508L9.77571 8.24214L9.77025 8.58291L6.75759 6.85562L7.20158 6.57458L7.18525 6.31373L10.1863 8.03508ZM16.307 7.60465C16.3468 7.90632 16.3707 8.21328 16.3743 8.52504L16.0997 8.59536L16.307 7.60465ZM9.85292 2.25938L10.1207 2.43118L7.04753 3.99638L7.00612 3.28809L6.92507 3.28752L6.29488 3.60827L6.28242 4.38649L7.04753 3.99638L7.18525 6.31373L6.41298 5.87078L6.40941 6.09341L5.97853 6.4097L6.75759 6.85562L4.55435 8.25411L4.55922 7.88892L4.33695 8.04653L3.88726 7.40274L3.87743 8.19953L2.69653 6.49982L3.13024 6.31147L2.97465 6.08675L3.43035 5.37904L2.60421 5.73843L4.03441 3.51809L4.23049 4.14251L4.46495 3.7721L4.81846 3.7746L4.67415 3.27164L6.92507 3.28752L9.86039 1.79264L9.85292 2.25938ZM12.8584 4.19364L13.0089 4.12244L12.9616 6.83301L12.8731 6.68785L12.2824 6.98348L12.3363 3.85793L12.8584 4.19364ZM9.87178 1.08082C11.6572 1.34057 13.2358 2.21351 14.3904 3.47986L13.0089 4.12244L13.0281 3.04838L12.3452 3.36484L12.3363 3.85793L10.1207 2.43118L10.231 2.3763L10.2434 1.59808L9.86039 1.79264L9.87178 1.08082Z" fill="#A8ADB4"/>
</svg>