<svg width="400" height="400" viewBox="0 0 400 400" fill="none" xmlns="http://www.w3.org/2000/svg">

	<style>
		.animation-loop {
		animation-duration: 4s;
		animation-iteration-count: infinite;
		animation-timing-function: linear;
		}

		#final-animation-group {
		animation-name: final-group-transform;
		transform-origin: 200px 200px;
		}
		#letters-group {
		animation-name: letters-transform;
		transform-origin: center;
		}
		#envelope-back, #envelope-front {
		animation-name: envelope-movement;
		}
		#flap-open {
		animation-name: flap-open-opacity;
		}
		#flap-closed {
		animation-name: flap-closed-opacity;
		}
		#checkmark {
		animation-name: checkmark-opacity;
		}

		@keyframes letters-transform {
		0%, 2.3% { opacity: 0; transform: scale(0.1); }
		18.2% { opacity: 1; transform: scale(1); }
		38.6% { transform: scale(1); }
		54.5%, 100% { opacity: 1; transform: scale(0.6); }
		}

		@keyframes envelope-movement {
		0%, 20.5% { transform: translateY(400px); }
		36.4% { transform: translateY(0); }
		38.6% { transform: translateY(0); }
		54.5%, 100% { transform: translateY(-60px); }
		}

		@keyframes flap-open-opacity {
		0%, 56.8% { opacity: 1; }
		68.2%, 100% { opacity: 0; }
		}

		@keyframes flap-closed-opacity {
		0%, 56.8% { opacity: 0; }
		68.2%, 100% { opacity: 1; }
		}

		@keyframes checkmark-opacity {
		0%, 70.5% { opacity: 0; }
		75%, 100% { opacity: 1; }
		}

		@keyframes final-group-transform {
		0%, 77.3% { transform: translateY(0) rotate(0deg); }
		100% { transform: translateY(-500px) rotate(60deg); }
		}
	</style>

	<g id="final-animation-group" class="animation-loop">
		<g id="scene-group" transform-origin="center">
			<g id="envelope-back" transform="translate(0, 400)" class="animation-loop">
				<g>
					<rect x="58" y="158" width="284" height="190" rx="26.887" fill="#006EEE"/>
					<g id="flap-open" class="animation-loop">
						<path
							d="M341.77 184H58.2298C57.1751 177.163 59.751 169.832 65.9576 165.407L189.365 77.4171C195.755 72.8609 204.245 72.861 210.635 77.4172L334.042 165.407C340.249 169.832 342.825 177.163 341.77 184Z"
							fill="#006EEE"/>
					</g>
				</g>
			</g>

			<g id="letters-group" opacity="0" transform="scale(0.1)" transform-origin="center" class="animation-loop">
				<g id="square-letters" style="transform-box: fill-box; transform-origin: center;">
					<g clip-path="url(#clip0_231_44578)">
						<path
							d="M341.77 510H58.2298C57.1751 503.163 59.751 495.832 65.9576 491.407L189.365 403.417C195.755 398.861 204.245 398.861 210.635 403.417L334.042 491.407C340.249 495.832 342.825 503.163 341.77 510Z"
							fill="#006EEE"/>
						<g opacity="0.8">
							<mask id="path-2-inside-1_231_44578" fill="white">
								<path
									d="M219.157 54.1796C226.5 52.2125 234.047 56.5697 236.014 63.912L243.737 92.7351C245.482 99.2451 242.254 105.915 236.382 108.716C242.867 108.205 248.998 112.367 250.742 118.877L294.164 280.931C296.132 288.274 291.774 295.821 284.432 297.788L133.235 338.301C125.893 340.269 118.346 335.911 116.378 328.569L72.9562 166.515C71.2121 160.005 74.4396 153.335 80.3111 150.535C73.8261 151.045 67.6958 146.882 65.9514 140.373L58.2283 111.55C56.2611 104.207 60.6183 96.6602 67.9607 94.6926L219.157 54.1796Z"/>
							</mask>
							<path
								d="M219.157 54.1796C226.5 52.2125 234.047 56.5697 236.014 63.912L243.737 92.7351C245.482 99.2451 242.254 105.915 236.382 108.716C242.867 108.205 248.998 112.367 250.742 118.877L294.164 280.931C296.132 288.274 291.774 295.821 284.432 297.788L133.235 338.301C125.893 340.269 118.346 335.911 116.378 328.569L72.9562 166.515C71.2121 160.005 74.4396 153.335 80.3111 150.535C73.8261 151.045 67.6958 146.882 65.9514 140.373L58.2283 111.55C56.2611 104.207 60.6183 96.6602 67.9607 94.6926L219.157 54.1796Z"
								fill="white"/>
							<path
								d="M219.157 54.1796C226.5 52.2125 234.047 56.5697 236.014 63.912L243.737 92.7351C245.482 99.2451 242.254 105.915 236.382 108.716C242.867 108.205 248.998 112.367 250.742 118.877L294.164 280.931C296.132 288.274 291.774 295.821 284.432 297.788L133.235 338.301C125.893 340.269 118.346 335.911 116.378 328.569L72.9562 166.515C71.2121 160.005 74.4396 153.335 80.3111 150.535C73.8261 151.045 67.6958 146.882 65.9514 140.373L58.2283 111.55C56.2611 104.207 60.6183 96.6602 67.9607 94.6926L219.157 54.1796Z"
								fill="#87A2C0" fill-opacity="0.02"/>
							<path
								d="M219.157 54.1796L218.847 53.0205L218.847 53.0205L219.157 54.1796ZM236.014 63.912L237.173 63.6014L237.173 63.6014L236.014 63.912ZM243.737 92.7351L244.897 92.4245L244.897 92.4245L243.737 92.7351ZM236.382 108.716L235.865 107.633C235.343 107.881 235.073 108.468 235.223 109.026C235.372 109.585 235.899 109.957 236.476 109.912L236.382 108.716ZM250.742 118.877L251.901 118.567L251.901 118.567L250.742 118.877ZM294.164 280.931L295.324 280.621L295.324 280.621L294.164 280.931ZM284.432 297.788L284.743 298.947L284.743 298.947L284.432 297.788ZM133.235 338.301L133.546 339.46L133.546 339.46L133.235 338.301ZM116.378 328.569L115.219 328.879L115.219 328.879L116.378 328.569ZM72.9562 166.515L71.7971 166.826L71.7971 166.826L72.9562 166.515ZM80.3111 150.535L80.8276 151.618C81.3497 151.369 81.6199 150.783 81.4702 150.224C81.3205 149.665 80.7935 149.293 80.2169 149.338L80.3111 150.535ZM65.9514 140.373L64.7923 140.683L64.7923 140.683L65.9514 140.373ZM58.2283 111.55L57.0692 111.86L57.0692 111.86L58.2283 111.55ZM67.9607 94.6926L67.6501 93.5335L67.6501 93.5335L67.9607 94.6926ZM219.157 54.1796L219.468 55.3387C226.17 53.5431 233.059 57.5205 234.855 64.2226L236.014 63.912L237.173 63.6014C235.034 55.6189 226.829 50.8819 218.847 53.0205L219.157 54.1796ZM236.014 63.912L234.855 64.2226L242.578 93.0457L243.737 92.7351L244.897 92.4245L237.173 63.6014L236.014 63.912ZM243.737 92.7351L242.578 93.0456C244.17 98.9868 241.225 105.077 235.865 107.633L236.382 108.716L236.898 109.799C243.283 106.754 246.793 99.5035 244.897 92.4245L243.737 92.7351ZM236.382 108.716L236.476 109.912C242.395 109.446 247.991 113.247 249.583 119.188L250.742 118.877L251.901 118.567C250.004 111.488 243.339 106.964 236.287 107.519L236.382 108.716ZM250.742 118.877L249.583 119.188L293.005 281.242L294.164 280.931L295.324 280.621L251.901 118.567L250.742 118.877ZM294.164 280.931L293.005 281.242C294.801 287.944 290.824 294.833 284.121 296.629L284.432 297.788L284.743 298.947C292.725 296.808 297.462 288.603 295.324 280.621L294.164 280.931ZM284.432 297.788L284.121 296.629L132.925 337.142L133.235 338.301L133.546 339.46L284.743 298.947L284.432 297.788ZM133.235 338.301L132.925 337.142C126.223 338.938 119.334 334.96 117.538 328.258L116.378 328.569L115.219 328.879C117.358 336.862 125.563 341.599 133.546 339.46L133.235 338.301ZM116.378 328.569L117.538 328.258L74.1153 166.204L72.9562 166.515L71.7971 166.826L115.219 328.879L116.378 328.569ZM72.9562 166.515L74.1154 166.204C72.5237 160.263 75.4687 154.174 80.8276 151.618L80.3111 150.535L79.7945 149.452C73.4105 152.496 69.9006 159.747 71.7971 166.826L72.9562 166.515ZM80.3111 150.535L80.2169 149.338C74.298 149.804 68.7025 146.003 67.1105 140.062L65.9514 140.373L64.7923 140.683C66.6892 147.762 73.3542 152.286 80.4052 151.731L80.3111 150.535ZM65.9514 140.373L67.1105 140.062L59.3874 111.239L58.2283 111.55L57.0692 111.86L64.7923 140.683L65.9514 140.373ZM58.2283 111.55L59.3874 111.239C57.5917 104.537 61.5691 97.6477 68.2713 95.8517L67.9607 94.6926L67.6501 93.5335C59.6676 95.6726 54.9304 103.878 57.0692 111.86L58.2283 111.55ZM67.9607 94.6926L68.2713 95.8518L219.468 55.3387L219.157 54.1796L218.847 53.0205L67.6501 93.5335L67.9607 94.6926Z"
								fill="#B8BFC9" fill-opacity="0.6" mask="url(#path-2-inside-1_231_44578)"/>
						</g>
						<path opacity="0.4"
							  d="M170.435 306.455L167.602 307.214L159.252 276.051L162.085 275.292L170.435 306.455ZM140.215 314.551L135.493 315.817L127.142 284.653L131.865 283.388L140.215 314.551ZM142.105 314.045L141.161 314.298L132.811 283.135L133.755 282.882L142.105 314.045ZM143.992 313.539L143.047 313.792L134.697 282.63L135.642 282.377L143.992 313.539ZM145.882 313.033L144.938 313.286L136.588 282.123L137.532 281.87L145.882 313.033ZM166.655 307.467L146.824 312.78L138.474 281.617L158.305 276.303L166.655 307.467ZM179.878 303.924L178.934 304.177L170.584 273.013L171.528 272.76L179.878 303.924ZM181.766 303.418L180.821 303.671L172.471 272.508L173.415 272.255L181.766 303.418ZM202.541 297.851L182.711 303.165L174.361 272.001L194.191 266.688L202.541 297.851ZM206.317 296.839L203.484 297.599L195.134 266.436L197.967 265.677L206.317 296.839ZM211.984 295.321L207.262 296.586L198.912 265.424L203.634 264.159L211.984 295.321ZM242.203 287.224L239.37 287.983L231.02 256.819L233.853 256.06L242.203 287.224ZM247.869 285.705L243.147 286.971L234.797 255.807L239.519 254.542L247.869 285.705ZM249.757 285.2L248.812 285.453L240.462 254.289L241.407 254.036L249.757 285.2ZM251.646 284.693L250.702 284.946L242.352 253.783L243.296 253.53L251.646 284.693ZM253.534 284.188L252.589 284.441L244.239 253.277L245.183 253.024L253.534 284.188ZM274.31 278.621L254.479 283.934L246.129 252.771L265.959 247.457L274.31 278.621ZM134.548 316.069L131.715 316.828L123.365 285.664L126.198 284.905L134.548 316.069ZM176.101 304.935L171.379 306.2L163.029 275.038L167.751 273.772L176.101 304.935ZM177.988 304.429L177.044 304.682L168.694 273.52L169.638 273.267L177.988 304.429ZM213.873 294.814L212.929 295.067L204.578 263.903L205.523 263.65L213.873 294.814ZM215.764 294.307L214.82 294.56L206.47 263.397L207.414 263.144L215.764 294.307ZM217.65 293.802L216.706 294.055L208.355 262.891L209.3 262.638L217.65 293.802ZM238.429 288.234L218.597 293.548L210.247 262.385L230.078 257.071L238.429 288.234Z"
							  fill="#DFE0E3"/>
						<rect opacity="0.4" x="79.8242" y="108.061" width="140.782" height="8.3085" rx="4.15425"
							  transform="rotate(-15 79.8242 108.061)" fill="#EDEEF0"/>
						<rect opacity="0.4" x="94.248" y="161.887" width="55.7262" height="8.3085" rx="4.15425"
							  transform="rotate(-15 94.248 161.887)" fill="#EDEEF0"/>
						<rect opacity="0.4" x="98.7891" y="178.829" width="55.7262" height="8.3085" rx="4.15425"
							  transform="rotate(-15 98.7891 178.829)" fill="#EDEEF0"/>
						<rect opacity="0.4" x="103.326" y="195.773" width="55.7262" height="8.3085" rx="4.15425"
							  transform="rotate(-15 103.326 195.773)" fill="#EDEEF0"/>
						<rect opacity="0.4" x="107.865" y="212.715" width="55.7262" height="8.3085" rx="4.15425"
							  transform="rotate(-15 107.865 212.715)" fill="#EDEEF0"/>
						<rect opacity="0.4" x="112.406" y="229.658" width="55.7262" height="8.3085" rx="4.15425"
							  transform="rotate(-15 112.406 229.658)" fill="#EDEEF0"/>
						<rect opacity="0.4" x="217.012" y="128.993" width="16.6201" height="8.3085" rx="4.15425"
							  transform="rotate(-15 217.012 128.993)" fill="#EDEEF0"/>
						<rect opacity="0.4" x="221.551" y="145.935" width="16.6201" height="8.3085" rx="4.15425"
							  transform="rotate(-15 221.551 145.935)" fill="#EDEEF0"/>
						<rect opacity="0.4" x="226.088" y="162.878" width="16.6201" height="8.3085" rx="4.15425"
							  transform="rotate(-15 226.088 162.878)" fill="#EDEEF0"/>
						<rect opacity="0.4" x="230.629" y="179.821" width="16.6201" height="8.3085" rx="4.15425"
							  transform="rotate(-15 230.629 179.821)" fill="#EDEEF0"/>
						<rect opacity="0.4" x="235.17" y="196.763" width="16.6201" height="8.3085" rx="4.15425"
							  transform="rotate(-15 235.17 196.763)" fill="#EDEEF0"/>
						<rect opacity="0.4" x="109.865" y="117.616" width="87.0111" height="8.3085" rx="4.15425"
							  transform="rotate(-15 109.865 117.616)" fill="#EDEEF0"/>
						<mask id="path-17-inside-2_231_44578" fill="white">
							<path
								d="M296.194 62.1474C303.785 61.7496 310.261 67.581 310.659 75.1718L312.471 109.739C312.821 116.434 308.326 122.261 302.052 123.816C308.455 124.707 313.535 130.033 313.886 136.728L323.517 320.5C323.915 328.091 318.083 334.567 310.492 334.965L138.879 343.959C131.288 344.357 124.811 338.526 124.413 330.935L114.782 147.163C114.432 140.467 118.927 134.64 125.2 133.084C118.798 132.193 113.719 126.868 113.368 120.173L111.556 85.6064C111.159 78.0155 116.99 71.5392 124.581 71.1412L296.194 62.1474Z"/>
						</mask>
						<path
							d="M296.194 62.1474C303.785 61.7496 310.261 67.581 310.659 75.1718L312.471 109.739C312.821 116.434 308.326 122.261 302.052 123.816C308.455 124.707 313.535 130.033 313.886 136.728L323.517 320.5C323.915 328.091 318.083 334.567 310.492 334.965L138.879 343.959C131.288 344.357 124.811 338.526 124.413 330.935L114.782 147.163C114.432 140.467 118.927 134.64 125.2 133.084C118.798 132.193 113.719 126.868 113.368 120.173L111.556 85.6064C111.159 78.0155 116.99 71.5392 124.581 71.1412L296.194 62.1474Z"
							fill="white"/>
						<path
							d="M296.194 62.1474L296.131 60.949L296.131 60.949L296.194 62.1474ZM310.659 75.1718L311.857 75.109L311.857 75.109L310.659 75.1718ZM302.052 123.816L301.764 122.651C301.206 122.79 300.824 123.304 300.854 123.879C300.884 124.453 301.317 124.925 301.887 125.004L302.052 123.816ZM313.886 136.728L315.084 136.665L315.084 136.665L313.886 136.728ZM310.492 334.965L310.554 336.164L310.554 336.164L310.492 334.965ZM138.879 343.959L138.941 345.158L138.941 345.158L138.879 343.959ZM124.413 330.935L123.215 330.998L124.413 330.935ZM114.782 147.163L113.584 147.225L113.584 147.225L114.782 147.163ZM125.2 133.084L125.489 134.249C126.047 134.111 126.429 133.596 126.399 133.022C126.369 132.447 125.935 131.975 125.366 131.896L125.2 133.084ZM111.556 85.6064L110.358 85.6691L110.358 85.6692L111.556 85.6064ZM124.581 71.1412L124.518 69.9429L124.518 69.9429L124.581 71.1412ZM296.194 62.1474L296.257 63.3457C303.186 62.9827 309.097 68.3056 309.461 75.2347L310.659 75.1718L311.857 75.109C311.425 66.8564 304.384 60.5166 296.131 60.949L296.194 62.1474ZM310.659 75.1718L309.461 75.2347L311.272 109.801L312.471 109.739L313.669 109.676L311.857 75.109L310.659 75.1718ZM312.471 109.739L311.272 109.801C311.592 115.912 307.49 121.232 301.764 122.651L302.052 123.816L302.341 124.981C309.163 123.29 314.05 116.956 313.669 109.676L312.471 109.739ZM302.052 123.816L301.887 125.004C307.731 125.817 312.367 130.681 312.688 136.791L313.886 136.728L315.084 136.665C314.703 129.385 309.179 123.596 302.218 122.627L302.052 123.816ZM313.886 136.728L312.688 136.791L322.319 320.563L323.517 320.5L324.715 320.437L315.084 136.665L313.886 136.728ZM323.517 320.5L322.319 320.563C322.682 327.492 317.358 333.404 310.429 333.767L310.492 334.965L310.554 336.164C318.807 335.731 325.148 328.69 324.715 320.437L323.517 320.5ZM310.492 334.965L310.429 333.767L138.816 342.761L138.879 343.959L138.941 345.158L310.554 336.164L310.492 334.965ZM138.879 343.959L138.816 342.761C131.887 343.124 125.975 337.801 125.612 330.872L124.413 330.935L123.215 330.998C123.648 339.25 130.689 345.59 138.941 345.158L138.879 343.959ZM124.413 330.935L125.612 330.872L115.981 147.1L114.782 147.163L113.584 147.225L123.215 330.998L124.413 330.935ZM114.782 147.163L115.981 147.1C115.661 140.99 119.763 135.669 125.489 134.249L125.2 133.084L124.912 131.92C118.09 133.611 113.203 139.945 113.584 147.225L114.782 147.163ZM125.2 133.084L125.366 131.896C119.522 131.082 114.886 126.22 114.566 120.11L113.368 120.173L112.169 120.236C112.551 127.516 118.074 133.304 125.035 134.273L125.2 133.084ZM113.368 120.173L114.566 120.11L112.755 85.5436L111.556 85.6064L110.358 85.6692L112.169 120.236L113.368 120.173ZM111.556 85.6064L112.755 85.5436C112.392 78.6145 117.715 72.7028 124.644 72.3396L124.581 71.1412L124.518 69.9429C116.265 70.3755 109.926 77.4165 110.358 85.6691L111.556 85.6064ZM124.581 71.1412L124.644 72.3396L296.257 63.3457L296.194 62.1474L296.131 60.949L124.518 69.9429L124.581 71.1412Z"
							fill="#0075FF" mask="url(#path-17-inside-2_231_44578)"/>
						<rect x="135.283" y="87.9181" width="152.499" height="9" rx="4.5"
							  transform="rotate(-3 135.283 87.9181)" fill="#EAEAEA"/>
						<rect x="138.443" y="148.198" width="60.3642" height="9" rx="4.5"
							  transform="rotate(-3 138.443 148.198)" fill="#EAEAEA"/>
						<rect x="139.438" y="167.172" width="60.3642" height="9" rx="4.5"
							  transform="rotate(-3 139.438 167.172)" fill="#EAEAEA"/>
						<rect x="140.43" y="186.146" width="60.3642" height="9" rx="4.5"
							  transform="rotate(-3 140.43 186.146)" fill="#EAEAEA"/>
						<rect x="141.424" y="205.12" width="60.3642" height="9" rx="4.5"
							  transform="rotate(-3 141.424 205.12)" fill="#EAEAEA"/>
						<rect x="142.418" y="224.094" width="60.3642" height="9" rx="4.5"
							  transform="rotate(-3 142.418 224.094)" fill="#EAEAEA"/>
						<rect x="275.928" y="140.993" width="18.0033" height="9" rx="4.5"
							  transform="rotate(-3 275.928 140.993)" fill="#EAEAEA"/>
						<rect x="276.92" y="159.967" width="18.0033" height="9" rx="4.5"
							  transform="rotate(-3 276.92 159.967)" fill="#EAEAEA"/>
						<rect x="277.912" y="178.941" width="18.0033" height="9" rx="4.5"
							  transform="rotate(-3 277.912 178.941)" fill="#EAEAEA"/>
						<rect x="278.908" y="197.915" width="18.0033" height="9" rx="4.5"
							  transform="rotate(-3 278.908 197.915)" fill="#EAEAEA"/>
						<rect x="279.904" y="216.889" width="18.0033" height="9" rx="4.5"
							  transform="rotate(-3 279.904 216.889)" fill="#EAEAEA"/>
						<rect x="164.961" y="104.808" width="94.2528" height="9" rx="4.5"
							  transform="rotate(-3 164.961 104.808)" fill="#EAEAEA"/>
					</g>
					<defs>
						<clipPath id="clip0_231_44578">
							<rect width="400" height="400" fill="white"/>
						</clipPath>
					</defs>
				</g>
			</g>
			<g id="envelope-front" transform="translate(0, 400)" class="animation-loop">
				<path
					d="M58.2222 181.414C58.0756 182.551 58 183.71 58 184.887V321.113C58 335.962 70.0377 348 84.887 348H315.113C329.962 348 342 335.962 342 321.113V184.887C342 183.71 341.924 182.551 341.778 181.415C341.04 186.028 338.461 190.409 334.042 193.394L210.636 276.762C204.245 281.079 195.755 281.079 189.365 276.762L65.9578 193.394C61.5389 190.408 58.9603 186.028 58.2222 181.414Z"
					fill="#2D86EE"/>
				<path
					d="M163.331 236.155C180.374 222.639 188.896 215.882 198.867 215.842C208.838 215.802 217.413 222.491 234.564 235.869L342 319.671C342 324.58 342 327.034 341.627 329.081C339.909 338.521 332.521 345.909 323.081 347.627C321.034 348 318.58 348 313.671 348L86.3205 348C81.4196 348 78.9691 348 76.9257 347.629C67.48 345.912 60.0877 338.52 58.3713 329.074C58 327.031 58 324.58 58 319.68L163.331 236.155Z"
					fill="#0075FF"/>
				<g id="flap-closed" opacity="0" transform="translate(0, 45)" class="animation-loop">
					<path
						d="M236.21 229.972C219.279 242.064 210.813 248.109 201.138 248.147C191.463 248.185 182.951 242.205 165.926 230.246L58.0002 154.43C58.0002 139.374 58.0002 131.846 61.2182 126.23C63.3676 122.478 66.4784 119.367 70.23 117.218C75.8467 114 83.3745 114 98.4303 114L301.579 114C316.626 114 324.15 114 329.764 117.215C333.521 119.365 336.635 122.479 338.785 126.236C342 131.85 342 139.374 342 154.421L236.21 229.972Z"
						fill="#60A9FF"/>
				</g>
				<g id="checkmark" opacity="0" class="animation-loop">
					<g transform="translate(260, 130)">
						<circle cx="53" cy="53" r="53" fill="white"/>
						<circle cx="53" cy="53" r="45" fill="#1BCE7B"/>
						<path fill-rule="evenodd" clip-rule="evenodd"
							  d="M80.5915 34.5354C82.523 36.527 82.4601 39.6937 80.4512 41.6084L48.9789 71.6038C47.0256 73.4654 43.9378 73.4654 41.9845 71.6038L25.5488 55.9394C23.5399 54.0247 23.477 50.858 25.4085 48.8664C27.3399 46.8748 30.5343 46.8125 32.5433 48.7273L45.4817 61.0585L73.4567 34.3962C75.4657 32.4815 78.6601 32.5438 80.5915 34.5354Z"
							  fill="white"/>
					</g>
				</g>
				<defs>
					<filter id="filter0_d_231_44481" x="55.9207" y="52.7897" width="240.551" height="288.737"
							filterUnits="userSpaceOnUse" color-interpolation-filters="sRGB">
						<feFlood flood-opacity="0" result="BackgroundImageFix"/>
						<feColorMatrix in="SourceAlpha" type="matrix" values="0 0 0 0 0 0 0 0 0 0 0 0 0 0 0 0 0 0 127 0"
									   result="hardAlpha"/>
						<feOffset dy="0.917593"/>
						<feGaussianBlur stdDeviation="0.917593"/>
						<feComposite in2="hardAlpha" operator="out"/>
						<feColorMatrix type="matrix" values="0 0 0 0 0 0 0 0 0 0 0 0 0 0 0 0 0 0 0.12 0"/>
						<feBlend mode="normal" in2="BackgroundImageFix" result="effect1_dropShadow_231_44481"/>
						<feBlend mode="normal" in="SourceGraphic" in2="effect1_dropShadow_231_44481" result="shape"/>
					</filter>
					<filter id="filter1_d_231_44481" x="109.702" y="61.2106" width="215.67" height="285.521"
							filterUnits="userSpaceOnUse" color-interpolation-filters="sRGB">
						<feFlood flood-opacity="0" result="BackgroundImageFix"/>
						<feColorMatrix in="SourceAlpha" type="matrix" values="0 0 0 0 0 0 0 0 0 0 0 0 0 0 0 0 0 0 127 0"
									   result="hardAlpha"/>
						<feOffset dy="0.917593"/>
						<feGaussianBlur stdDeviation="0.917593"/>
						<feComposite in2="hardAlpha" operator="out"/>
						<feColorMatrix type="matrix" values="0 0 0 0 0 0 0 0 0 0 0 0 0 0 0 0 0 0 0.12 0"/>
						<feBlend mode="normal" in2="BackgroundImageFix" result="effect1_dropShadow_231_44481"/>
						<feBlend mode="normal" in="SourceGraphic" in2="effect1_dropShadow_231_44481" result="shape"/>
					</filter>
				</defs>
			</g>
		</g>
	</g>
</svg>