<svg width="200" height="200" viewBox="0 0 200 200" fill="none" xmlns="http://www.w3.org/2000/svg">
	<rect x="29" y="59" width="142" height="95" rx="13.4435" fill="#006EEE"/>
	<g opacity="0.8" filter="url(#filter0_d_235_41269)">
		<mask id="path-2-inside-1_235_41269" fill="white">
			<path d="M100.453 69.6705C104.124 68.6871 107.898 70.8659 108.882 74.5367L109.592 77.1873C110.492 80.5482 108.741 83.9933 105.623 85.3067C108.98 84.8847 112.219 86.9931 113.12 90.3537L124.103 131.344C125.087 135.015 122.908 138.789 119.237 139.773L81.3706 149.919C77.6994 150.903 73.9259 148.724 72.9421 145.053L61.9588 104.062C61.0587 100.702 62.8087 97.2566 65.9272 95.9431C62.5695 96.3647 59.3313 94.2566 58.4308 90.8959L57.7206 88.2452C56.7373 84.5742 58.9158 80.8005 62.5868 79.8168L100.453 69.6705Z"/>
		</mask>
		<path d="M100.453 69.6705C104.124 68.6871 107.898 70.8659 108.882 74.5367L109.592 77.1873C110.492 80.5482 108.741 83.9933 105.623 85.3067C108.98 84.8847 112.219 86.9931 113.12 90.3537L124.103 131.344C125.087 135.015 122.908 138.789 119.237 139.773L81.3706 149.919C77.6994 150.903 73.9259 148.724 72.9421 145.053L61.9588 104.062C61.0587 100.702 62.8087 97.2566 65.9272 95.9431C62.5695 96.3647 59.3313 94.2566 58.4308 90.8959L57.7206 88.2452C56.7373 84.5742 58.9158 80.8005 62.5868 79.8168L100.453 69.6705Z" fill="white"/>
		<path d="M100.453 69.6705C104.124 68.6871 107.898 70.8659 108.882 74.5367L109.592 77.1873C110.492 80.5482 108.741 83.9933 105.623 85.3067C108.98 84.8847 112.219 86.9931 113.12 90.3537L124.103 131.344C125.087 135.015 122.908 138.789 119.237 139.773L81.3706 149.919C77.6994 150.903 73.9259 148.724 72.9421 145.053L61.9588 104.062C61.0587 100.702 62.8087 97.2566 65.9272 95.9431C62.5695 96.3647 59.3313 94.2566 58.4308 90.8959L57.7206 88.2452C56.7373 84.5742 58.9158 80.8005 62.5868 79.8168L100.453 69.6705Z" fill="#87A2C0" fill-opacity="0.02"/>
		<path d="M100.453 69.6705L100.298 69.0909L100.298 69.0909L100.453 69.6705ZM108.882 74.5367L109.461 74.3814L109.461 74.3813L108.882 74.5367ZM105.623 85.3067L105.39 84.7538C105.113 84.8701 104.965 85.1725 105.043 85.4621C105.121 85.7516 105.4 85.9395 105.697 85.9021L105.623 85.3067ZM113.12 90.3537L113.699 90.1984L113.699 90.1984L113.12 90.3537ZM124.103 131.344L124.683 131.189L124.683 131.189L124.103 131.344ZM119.237 139.773L119.392 140.352L119.392 140.352L119.237 139.773ZM81.3706 149.919L81.5259 150.499L81.5259 150.499L81.3706 149.919ZM72.9421 145.053L72.3626 145.208L72.3626 145.208L72.9421 145.053ZM61.9588 104.062L61.3792 104.218L61.3792 104.218L61.9588 104.062ZM65.9272 95.9431L66.1601 96.496C66.4363 96.3797 66.5843 96.0773 66.5067 95.7878C66.4291 95.4983 66.1498 95.3104 65.8524 95.3478L65.9272 95.9431ZM57.7206 88.2452L57.141 88.4005L57.141 88.4005L57.7206 88.2452ZM62.5868 79.8168L62.4315 79.2372L62.4315 79.2372L62.5868 79.8168ZM100.453 69.6705L100.608 70.2501C103.959 69.3524 107.404 71.3413 108.302 74.692L108.882 74.5367L109.461 74.3813C108.392 70.3905 104.289 68.0218 100.298 69.0909L100.453 69.6705ZM108.882 74.5367L108.302 74.692L109.012 77.3426L109.592 77.1873L110.171 77.032L109.461 74.3814L108.882 74.5367ZM109.592 77.1873L109.012 77.3426C109.834 80.4097 108.236 83.5549 105.39 84.7538L105.623 85.3067L105.855 85.8597C109.247 84.4316 111.151 80.6867 110.171 77.032L109.592 77.1873ZM105.623 85.3067L105.697 85.9021C108.762 85.5168 111.718 87.4421 112.54 90.5091L113.12 90.3537L113.699 90.1984C112.72 86.5441 109.199 84.2525 105.548 84.7114L105.623 85.3067ZM113.12 90.3537L112.54 90.509L123.524 131.5L124.103 131.344L124.683 131.189L113.699 90.1984L113.12 90.3537ZM124.103 131.344L123.524 131.5C124.421 134.851 122.433 138.295 119.082 139.193L119.237 139.773L119.392 140.352C123.383 139.283 125.752 135.18 124.683 131.189L124.103 131.344ZM119.237 139.773L119.082 139.193L81.2153 149.339L81.3706 149.919L81.5259 150.499L119.392 140.352L119.237 139.773ZM81.3706 149.919L81.2154 149.339C77.8642 150.237 74.4197 148.249 73.5217 144.898L72.9421 145.053L72.3626 145.208C73.4321 149.199 77.5347 151.568 81.5259 150.499L81.3706 149.919ZM72.9421 145.053L73.5217 144.898L62.5383 103.907L61.9588 104.062L61.3792 104.218L72.3626 145.208L72.9421 145.053ZM61.9588 104.062L62.5383 103.907C61.7169 100.84 63.3139 97.6949 66.1601 96.496L65.9272 95.9431L65.6942 95.3902C62.3036 96.8184 60.4005 100.563 61.3792 104.218L61.9588 104.062ZM65.9272 95.9431L65.8524 95.3478C62.7879 95.7326 59.8322 93.8076 59.0104 90.7406L58.4308 90.8959L57.8513 91.0512C58.8305 94.7056 62.3512 96.9969 66.0019 96.5384L65.9272 95.9431ZM58.4308 90.8959L59.0104 90.7406L58.3002 88.09L57.7206 88.2452L57.141 88.4005L57.8513 91.0512L58.4308 90.8959ZM57.7206 88.2452L58.3002 88.09C57.4026 84.739 59.3912 81.2943 62.7421 80.3963L62.5868 79.8168L62.4315 79.2372C58.4404 80.3067 56.072 84.4094 57.141 88.4005L57.7206 88.2452ZM62.5868 79.8168L62.7421 80.3963L100.608 70.25L100.453 69.6705L100.298 69.0909L62.4315 79.2372L62.5868 79.8168Z" fill="#B8BFC9" fill-opacity="0.6" mask="url(#path-2-inside-1_235_41269)"/>
	</g>
	<path opacity="0.4" d="M78.925 144.278L78.11 144.496L75.707 135.529L76.522 135.31L78.925 144.278ZM80.5559 143.841L79.1966 144.205L76.7937 135.237L78.153 134.873L80.5559 143.841ZM81.0992 143.695L80.8276 143.768L78.4246 134.8L78.6963 134.728L81.0992 143.695ZM81.6426 143.55L81.3709 143.623L78.968 134.655L79.2396 134.582L81.6426 143.55ZM82.1859 143.404L81.9142 143.477L79.5113 134.509L79.783 134.436L82.1859 143.404ZM88.1644 141.802L82.4576 143.331L80.0546 134.364L85.7615 132.834L88.1644 141.802ZM89.2521 141.511L88.4371 141.729L86.0341 132.761L86.8491 132.543L89.2521 141.511ZM90.883 141.074L89.5237 141.438L87.1208 132.47L88.4801 132.106L90.883 141.074ZM91.4254 140.929L91.1537 141.001L88.7508 132.034L89.0225 131.961L91.4254 140.929ZM91.9697 140.783L91.698 140.856L89.2951 131.888L89.5667 131.815L91.9697 140.783ZM92.513 140.637L92.2404 140.71L89.8375 131.742L90.1101 131.669L92.513 140.637ZM98.4916 139.035L92.7847 140.564L90.3817 131.597L96.0886 130.067L98.4916 139.035ZM99.5773 138.744L98.7623 138.963L96.3594 129.995L97.1744 129.776L99.5773 138.744ZM101.209 138.307L99.8499 138.671L97.447 129.703L98.8062 129.339L101.209 138.307ZM101.752 138.162L101.48 138.234L99.077 129.267L99.3486 129.194L101.752 138.162ZM102.297 138.016L102.025 138.088L99.6222 129.121L99.8939 129.048L102.297 138.016ZM102.839 137.87L102.567 137.943L100.164 128.975L100.436 128.902L102.839 137.87ZM108.819 136.268L103.112 137.797L100.709 128.829L106.416 127.3L108.819 136.268ZM109.904 135.977L109.089 136.195L106.686 127.228L107.501 127.009L109.904 135.977ZM111.535 135.54L110.176 135.904L107.773 126.936L109.132 126.572L111.535 135.54ZM112.078 135.395L111.806 135.468L109.403 126.5L109.675 126.427L112.078 135.395ZM112.622 135.249L112.35 135.322L109.947 126.354L110.219 126.281L112.622 135.249ZM113.165 135.103L112.893 135.176L110.49 126.209L110.762 126.136L113.165 135.103ZM119.144 133.501L113.437 135.031L111.034 126.063L116.741 124.534L119.144 133.501Z" fill="#DFE0E3"/>
	<rect opacity="0.4" x="63.1797" y="84.4202" width="40.5123" height="2.3909" rx="1.19545" transform="rotate(-15 63.1797 84.4202)" fill="#EDEEF0"/>
	<rect opacity="0.4" x="67.3301" y="99.9094" width="16.0361" height="2.3909" rx="1.19545" transform="rotate(-15 67.3301 99.9094)" fill="#EDEEF0"/>
	<rect opacity="0.4" x="68.6348" y="104.785" width="16.0361" height="2.3909" rx="1.19545" transform="rotate(-15 68.6348 104.785)" fill="#EDEEF0"/>
	<rect opacity="0.4" x="69.9414" y="109.661" width="16.0361" height="2.3909" rx="1.19545" transform="rotate(-15 69.9414 109.661)" fill="#EDEEF0"/>
	<rect opacity="0.4" x="71.248" y="114.536" width="16.0361" height="2.3909" rx="1.19545" transform="rotate(-15 71.248 114.536)" fill="#EDEEF0"/>
	<rect opacity="0.4" x="72.5547" y="119.411" width="16.0361" height="2.3909" rx="1.19545" transform="rotate(-15 72.5547 119.411)" fill="#EDEEF0"/>
	<rect opacity="0.4" x="102.656" y="90.4436" width="4.7827" height="2.3909" rx="1.19545" transform="rotate(-15 102.656 90.4436)" fill="#EDEEF0"/>
	<rect opacity="0.4" x="103.963" y="95.3191" width="4.7827" height="2.3909" rx="1.19545" transform="rotate(-15 103.963 95.3191)" fill="#EDEEF0"/>
	<rect opacity="0.4" x="105.27" y="100.195" width="4.7827" height="2.3909" rx="1.19545" transform="rotate(-15 105.27 100.195)" fill="#EDEEF0"/>
	<rect opacity="0.4" x="106.574" y="105.07" width="4.7827" height="2.3909" rx="1.19545" transform="rotate(-15 106.574 105.07)" fill="#EDEEF0"/>
	<rect opacity="0.4" x="107.883" y="109.946" width="4.7827" height="2.3909" rx="1.19545" transform="rotate(-15 107.883 109.946)" fill="#EDEEF0"/>
	<rect opacity="0.4" x="71.8223" y="87.1699" width="25.0388" height="2.3909" rx="1.19545" transform="rotate(-15 71.8223 87.1699)" fill="#EDEEF0"/>
	<g filter="url(#filter1_d_235_41269)">
		<mask id="path-17-inside-2_235_41269" fill="white">
			<path d="M122.527 71.3601C126.322 71.1614 129.56 74.0769 129.759 77.8723L129.975 81.9848C130.156 85.4443 127.749 88.4394 124.447 89.0934C127.8 89.3986 130.506 92.1266 130.687 95.5863L133.153 142.635C133.352 146.43 130.436 149.669 126.641 149.868L83.0903 152.15C79.295 152.349 76.0568 149.433 75.8578 145.638L73.392 98.589C73.2107 95.1298 75.617 92.134 78.9181 91.4795C75.5667 91.1738 72.8606 88.4468 72.6792 84.9876L72.4637 80.875C72.2648 77.0795 75.1804 73.8415 78.9759 73.6425L122.527 71.3601Z"/>
		</mask>
		<path d="M122.527 71.3601C126.322 71.1614 129.56 74.0769 129.759 77.8723L129.975 81.9848C130.156 85.4443 127.749 88.4394 124.447 89.0934C127.8 89.3986 130.506 92.1266 130.687 95.5863L133.153 142.635C133.352 146.43 130.436 149.669 126.641 149.868L83.0903 152.15C79.295 152.349 76.0568 149.433 75.8578 145.638L73.392 98.589C73.2107 95.1298 75.617 92.134 78.9181 91.4795C75.5667 91.1738 72.8606 88.4468 72.6792 84.9876L72.4637 80.875C72.2648 77.0795 75.1804 73.8415 78.9759 73.6425L122.527 71.3601Z" fill="white"/>
		<path d="M122.527 71.3601L122.495 70.7609L122.495 70.7609L122.527 71.3601ZM129.975 81.9848L130.574 81.9535L130.574 81.9534L129.975 81.9848ZM124.447 89.0934L124.331 88.5049C124.038 88.5628 123.833 88.827 123.848 89.1248C123.864 89.4227 124.096 89.6639 124.393 89.691L124.447 89.0934ZM130.687 95.5863L131.287 95.5549L130.687 95.5863ZM133.153 142.635L133.752 142.604L133.752 142.604L133.153 142.635ZM126.641 149.868L126.672 150.467L126.641 149.868ZM83.0903 152.15L83.1217 152.749L83.1217 152.749L83.0903 152.15ZM75.8578 145.638L75.2586 145.669L75.2586 145.669L75.8578 145.638ZM78.9181 91.4795L79.0348 92.0681C79.3274 92.0101 79.5329 91.746 79.5173 91.4481C79.5017 91.1502 79.2697 90.9091 78.9726 90.882L78.9181 91.4795ZM72.6792 84.9876L72.08 85.019L72.08 85.019L72.6792 84.9876ZM78.9759 73.6425L78.9445 73.0433L78.9445 73.0433L78.9759 73.6425ZM122.527 71.3601L122.558 71.9593C126.022 71.7779 128.978 74.4392 129.16 77.9037L129.759 77.8723L130.358 77.8409C130.142 73.7145 126.621 70.5449 122.495 70.7609L122.527 71.3601ZM129.759 77.8723L129.16 77.9037L129.375 82.0162L129.975 81.9848L130.574 81.9534L130.358 77.8409L129.759 77.8723ZM129.975 81.9848L129.375 82.0162C129.541 85.1734 127.344 87.9079 124.331 88.5049L124.447 89.0934L124.564 89.682C128.154 88.9708 130.771 85.7153 130.574 81.9535L129.975 81.9848ZM124.447 89.0934L124.393 89.691C127.452 89.9694 129.923 92.4602 130.088 95.6177L130.687 95.5863L131.287 95.5549C131.089 91.7929 128.147 88.8277 124.502 88.4959L124.447 89.0934ZM130.687 95.5863L130.088 95.6177L132.554 142.666L133.153 142.635L133.752 142.604L131.287 95.5549L130.687 95.5863ZM133.153 142.635L132.554 142.666C132.735 146.131 130.074 149.087 126.61 149.268L126.641 149.868L126.672 150.467C130.799 150.25 133.968 146.73 133.752 142.604L133.153 142.635ZM126.641 149.868L126.61 149.268L83.0589 151.551L83.0903 152.15L83.1217 152.749L126.672 150.467L126.641 149.868ZM83.0903 152.15L83.059 151.551C79.5945 151.732 76.6386 149.071 76.4569 145.606L75.8578 145.638L75.2586 145.669C75.475 149.795 78.9955 152.965 83.1217 152.749L83.0903 152.15ZM75.8578 145.638L76.4569 145.606L73.9912 98.5576L73.392 98.589L72.7929 98.6204L75.2586 145.669L75.8578 145.638ZM73.392 98.589L73.9912 98.5576C73.8258 95.4006 76.022 92.6654 79.0348 92.0681L78.9181 91.4795L78.8015 90.891C75.2121 91.6026 72.5957 94.859 72.7929 98.6204L73.392 98.589ZM78.9181 91.4795L78.9726 90.882C75.9138 90.603 73.4439 88.1131 73.2784 84.9561L72.6792 84.9876L72.08 85.019C72.2773 88.7805 75.2196 91.7447 78.8637 92.077L78.9181 91.4795ZM72.6792 84.9876L73.2784 84.9562L73.0629 80.8436L72.4637 80.875L71.8645 80.9064L72.08 85.019L72.6792 84.9876ZM72.4637 80.875L73.0629 80.8436C72.8813 77.379 75.5427 74.4233 79.0073 74.2416L78.9759 73.6425L78.9445 73.0433C74.8181 73.2596 71.6482 76.78 71.8645 80.9064L72.4637 80.875ZM78.9759 73.6425L79.0073 74.2417L122.558 71.9593L122.527 71.3601L122.495 70.7609L78.9445 73.0433L78.9759 73.6425Z" fill="#0075FF" mask="url(#path-17-inside-2_235_41269)"/>
	</g>
	<rect x="79.1367" y="78.6233" width="43.884" height="2.58989" rx="1.29495" transform="rotate(-3 79.1367 78.6233)" fill="#EAEAEA"/>
	<rect x="80.0469" y="95.97" width="17.3708" height="2.58989" rx="1.29495" transform="rotate(-3 80.0469 95.97)" fill="#EAEAEA"/>
	<rect x="80.332" y="101.43" width="17.3708" height="2.58989" rx="1.29495" transform="rotate(-3 80.332 101.43)" fill="#EAEAEA"/>
	<rect x="80.6191" y="106.89" width="17.3708" height="2.58989" rx="1.29495" transform="rotate(-3 80.6191 106.89)" fill="#EAEAEA"/>
	<rect x="80.9062" y="112.35" width="17.3708" height="2.58989" rx="1.29495" transform="rotate(-3 80.9062 112.35)" fill="#EAEAEA"/>
	<rect x="81.1914" y="117.81" width="17.3708" height="2.58989" rx="1.29495" transform="rotate(-3 81.1914 117.81)" fill="#EAEAEA"/>
	<rect x="119.611" y="93.8965" width="5.18075" height="2.58989" rx="1.29495" transform="rotate(-3 119.611 93.8965)" fill="#EAEAEA"/>
	<rect x="119.896" y="99.3567" width="5.18075" height="2.58989" rx="1.29495" transform="rotate(-3 119.896 99.3567)" fill="#EAEAEA"/>
	<rect x="120.182" y="104.817" width="5.18075" height="2.58989" rx="1.29495" transform="rotate(-3 120.182 104.817)" fill="#EAEAEA"/>
	<rect x="120.467" y="110.277" width="5.18075" height="2.58989" rx="1.29495" transform="rotate(-3 120.467 110.277)" fill="#EAEAEA"/>
	<rect x="120.756" y="115.737" width="5.18075" height="2.58989" rx="1.29495" transform="rotate(-3 120.756 115.737)" fill="#EAEAEA"/>
	<rect x="87.6777" y="83.4836" width="27.1228" height="2.58989" rx="1.29495" transform="rotate(-3 87.6777 83.4836)" fill="#EAEAEA"/>
	<path d="M29.1111 70.707C29.0378 71.2755 29 71.8551 29 72.4435V140.556C29 147.981 35.0189 154 42.4435 154H157.557C164.981 154 171 147.981 171 140.556V72.4435C171 71.8552 170.962 71.2757 170.889 70.7074C170.52 73.0141 169.231 75.2043 167.021 76.6968L105.318 118.381C102.123 120.54 97.8774 120.54 94.6823 118.381L32.9789 76.6968C30.7694 75.2042 29.4802 73.0139 29.1111 70.707Z" fill="#2D86EE"/>
	<path d="M81.6653 98.0773C90.187 91.3197 94.4479 87.9409 99.4334 87.921C104.419 87.901 108.707 91.2456 117.282 97.9346L171 139.835C171 142.29 171 143.517 170.814 144.54C169.955 149.261 166.261 152.955 161.54 153.814C160.517 154 159.29 154 156.835 154L43.1602 154C40.7098 154 39.4846 154 38.4629 153.814C33.74 152.956 30.0439 149.26 29.1857 144.537C29 143.515 29 142.29 29 139.84L81.6653 98.0773Z" fill="#0075FF"/>
	<path d="M118.105 114.986C109.639 121.032 105.407 124.055 100.569 124.073C95.7313 124.092 91.4753 121.102 82.9631 115.123L29.0001 77.215C29.0001 69.6872 29.0001 65.9232 30.6091 63.1149C31.6838 61.2391 33.2392 59.6837 35.115 58.609C37.9233 57 41.6873 57 49.2151 57L150.789 57C158.313 57 162.075 57 164.882 58.6073C166.76 59.6827 168.317 61.2397 169.393 63.1179C171 65.9251 171 69.6869 171 77.2107L118.105 114.986Z" fill="#60A9FF"/>
	<defs>
		<filter id="filter0_d_235_41269" x="56.5668" y="68.9756" width="68.6907" height="82.5559" filterUnits="userSpaceOnUse" color-interpolation-filters="sRGB">
			<feFlood flood-opacity="0" result="BackgroundImageFix"/>
			<feColorMatrix in="SourceAlpha" type="matrix" values="0 0 0 0 0 0 0 0 0 0 0 0 0 0 0 0 0 0 127 0" result="hardAlpha"/>
			<feOffset dy="0.458797"/>
			<feGaussianBlur stdDeviation="0.458797"/>
			<feComposite in2="hardAlpha" operator="out"/>
			<feColorMatrix type="matrix" values="0 0 0 0 0 0 0 0 0 0 0 0 0 0 0 0 0 0 0.12 0"/>
			<feBlend mode="normal" in2="BackgroundImageFix" result="effect1_dropShadow_235_41269"/>
			<feBlend mode="normal" in="SourceGraphic" in2="effect1_dropShadow_235_41269" result="shape"/>
		</filter>
		<filter id="filter1_d_235_41269" x="71.5355" y="70.8917" width="62.5442" height="82.6442" filterUnits="userSpaceOnUse" color-interpolation-filters="sRGB">
			<feFlood flood-opacity="0" result="BackgroundImageFix"/>
			<feColorMatrix in="SourceAlpha" type="matrix" values="0 0 0 0 0 0 0 0 0 0 0 0 0 0 0 0 0 0 127 0" result="hardAlpha"/>
			<feOffset dy="0.458797"/>
			<feGaussianBlur stdDeviation="0.458797"/>
			<feComposite in2="hardAlpha" operator="out"/>
			<feColorMatrix type="matrix" values="0 0 0 0 0 0 0 0 0 0 0 0 0 0 0 0 0 0 0.12 0"/>
			<feBlend mode="normal" in2="BackgroundImageFix" result="effect1_dropShadow_235_41269"/>
			<feBlend mode="normal" in="SourceGraphic" in2="effect1_dropShadow_235_41269" result="shape"/>
		</filter>
	</defs>
</svg>
